<?xml version="1.0" encoding="utf-8"?>
<!-- Generator: Adobe Illustrator 17.1.0, SVG Export Plug-In . SVG Version: 6.00 Build 0)  -->
<!DOCTYPE svg PUBLIC "-//W3C//DTD SVG 1.1//EN" "http://www.w3.org/Graphics/SVG/1.1/DTD/svg11.dtd">
<svg version="1.1" id="Layer_1" xmlns="http://www.w3.org/2000/svg" xmlns:xlink="http://www.w3.org/1999/xlink" x="0px" y="0px"
	 viewBox="0 0 60 60" enable-background="new 0 0 60 60" xml:space="preserve">
<g id="News">
	<rect width="60" height="60"/>
	<rect x="26" y="24" fill="#FFFFFF" width="15" height="2"/>
	<rect x="34" y="28" fill="#FFFFFF" width="7" height="7"/>
	<rect x="26" y="30" fill="#FFFFFF" width="6" height="1"/>
	<rect x="26" y="28" fill="#FFFFFF" width="6" height="1"/>
	<rect x="26" y="32" fill="#FFFFFF" width="6" height="1"/>
	<rect x="26" y="34" fill="#FFFFFF" width="6" height="1"/>
	<path fill="#FFFFFF" d="M46,35.9V18H20v3h2v-1h22v15.9c0,0,0,1.5,0,2c0,2.1-0.7,3.1-2.1,3.1H22.2L22,41c-0.3,0-0.7-0.1-0.8-0.1
		c-0.3-0.1-0.7-0.3-0.9-0.4c-0.2-0.1-0.5-0.3-0.9-0.7c0.1,0,0.3-0.1,0.5-0.1c0.4-0.1,1-0.6,1.3-0.9C22,37.7,22,36.2,22,36V24v-1v-1
		h-6v14.8c0,2.7,1.8,4.6,3.5,5.5c0.2,0.1,0.6,0.3,1.1,0.5c0.3,0.1,1,0.2,1.4,0.2h20c2.5,0,4-1.9,4.1-5.1C46,37.4,46,35.9,46,35.9z
		 M18,24h2v12c0,0.3-0.1,1.1-0.4,1.6c-0.1,0.1-0.3,0.2-0.3,0.2c-0.3,0.1-0.7,0.2-0.7,0.2l-0.3,0.1c-0.1-0.4-0.2-0.8-0.2-1.3V24z"/>
</g>
</svg>
