<?xml version="1.0" encoding="utf-8"?>
<!-- Generator: Adobe Illustrator 17.1.0, SVG Export Plug-In . SVG Version: 6.00 Build 0)  -->
<!DOCTYPE svg PUBLIC "-//W3C//DTD SVG 1.1//EN" "http://www.w3.org/Graphics/SVG/1.1/DTD/svg11.dtd">
<svg version="1.1" id="Layer_1" xmlns="http://www.w3.org/2000/svg" xmlns:xlink="http://www.w3.org/1999/xlink" x="0px" y="0px"
	 viewBox="0 0 60 60" enable-background="new 0 0 60 60" xml:space="preserve">
<g id="Policy">
	<rect width="60" height="60"/>
	<g>
		<path fill="#FFFFFF" d="M46,31.3l-8.4,8.4h-4.2v-4.2l8.4-8.4L46,31.3z M38,37.4L35.6,35L34.7,36V37H36v1.3h1.1L38,37.4z
			 M42.1,28.8c-0.1,0-0.1,0-0.2,0.1l-5.4,5.4c-0.1,0.1-0.1,0.1-0.1,0.2c0,0.1,0.1,0.2,0.2,0.2c0.1,0,0.1,0,0.2-0.1l5.4-5.4
			c0.1-0.1,0.1-0.1,0.1-0.2C42.3,28.9,42.2,28.8,42.1,28.8z M48.3,28.9l-1.7,1.7l-4.2-4.2l1.7-1.7c0.2-0.2,0.6-0.4,0.9-0.4
			s0.7,0.1,0.9,0.4l2.4,2.3c0.2,0.2,0.4,0.6,0.4,0.9S48.5,28.7,48.3,28.9z"/>
	</g>
	<path fill="#FFFFFF" d="M39,40v2H21V18h12v4.8c0,0.6,0.6,1.2,1.3,1.2H39v4.2l2-2v-3.4c0-0.6-0.5-1.5-0.9-2l-3.8-3.9
		c-0.4-0.4-1.4-0.9-2-0.9H20.5c-0.6,0-1.5,0.7-1.5,1.4v25.2c0,0.6,0.9,1.4,1.5,1.4h19.2c0.6,0,1.3-0.7,1.3-1.4v-4.7L39,40z M35,17.9
		c0,0.1,0.2,0.2,0.3,0.3l3.7,3.6c0.1,0.1,0.1,0.3,0.2,0.3H35V17.9z"/>
	<path fill="#FFFFFF" d="M35,28H23c-0.3,0-0.5-0.2-0.5-0.5S22.7,27,23,27h12c0.3,0,0.5,0.2,0.5,0.5S35.3,28,35,28z"/>
	<path fill="#FFFFFF" d="M35,31H23c-0.3,0-0.5-0.2-0.5-0.5S22.7,30,23,30h12c0.3,0,0.5,0.2,0.5,0.5S35.3,31,35,31z"/>
	<path fill="#FFFFFF" d="M31,25h-8c-0.3,0-0.5-0.2-0.5-0.5S22.7,24,23,24h8c0.3,0,0.5,0.2,0.5,0.5S31.3,25,31,25z"/>
</g>
</svg>
