<?xml version="1.0" encoding="utf-8"?>
<!-- Generator: Adobe Illustrator 17.1.0, SVG Export Plug-In . SVG Version: 6.00 Build 0)  -->
<!DOCTYPE svg PUBLIC "-//W3C//DTD SVG 1.1//EN" "http://www.w3.org/Graphics/SVG/1.1/DTD/svg11.dtd">
<svg version="1.1" id="Layer_1" xmlns="http://www.w3.org/2000/svg" xmlns:xlink="http://www.w3.org/1999/xlink" x="0px" y="0px"
	 viewBox="0 0 60 60" enable-background="new 0 0 60 60" xml:space="preserve">
<g id="Promotion">
	<rect width="60" height="60"/>
	<g>
		<path fill="none" stroke="#FFFFFF" stroke-width="1.0714" stroke-miterlimit="10" d="M41.4,26.8c0.3,0.3,0.4,0.7,0.3,1.1
			c-0.1,0.4-0.4,0.7-0.8,0.8l-3,0.8l0.8,2.9c0.1,0.4,0,0.8-0.3,1.1c-0.3,0.3-0.7,0.4-1.1,0.3L34.4,33l-0.8,3
			c-0.1,0.4-0.4,0.7-0.8,0.8c-0.1,0-0.2,0-0.3,0c-0.3,0-0.6-0.1-0.8-0.3l-2.1-2.2l-2.1,2.2c-0.3,0.3-0.7,0.4-1.1,0.3
			c-0.4-0.1-0.7-0.4-0.8-0.8l-0.8-3l-2.9,0.8c-0.4,0.1-0.8,0-1.1-0.3c-0.3-0.3-0.4-0.7-0.3-1.1l0.8-2.9l-3-0.8
			c-0.4-0.1-0.7-0.4-0.8-0.8c-0.1-0.4,0-0.8,0.3-1.1l2.2-2.1l-2.2-2.1c-0.3-0.3-0.4-0.7-0.3-1.1c0.1-0.4,0.4-0.7,0.8-0.8l3-0.8
			l-0.8-2.9c-0.1-0.4,0-0.8,0.3-1.1c0.3-0.3,0.7-0.4,1.1-0.3l2.9,0.8l0.8-3c0.1-0.4,0.4-0.7,0.8-0.8c0.4-0.1,0.8,0,1.1,0.3l2.1,2.2
			l2.1-2.2c0.3-0.3,0.7-0.4,1.1-0.3c0.4,0.1,0.7,0.4,0.8,0.8l0.8,3l2.9-0.8c0.4-0.1,0.8,0,1.1,0.3c0.3,0.3,0.4,0.7,0.3,1.1l-0.8,2.9
			l3,0.8c0.4,0.1,0.7,0.4,0.8,0.8c0.1,0.4,0,0.8-0.3,1.1l-2.2,2.1L41.4,26.8z"/>
		<path fill="#FFFFFF" d="M40.4,36.5c-0.3,0.1-0.5,0.1-0.8,0l-3.8-1.1l-1,3.8c-0.1,0.4-0.3,0.7-0.6,0.9l5.6,10.1l1.5-4l4.4,0.6
			L40.4,36.5z"/>
		<path fill="#FFFFFF" d="M26.9,39.9c-0.4,0.4-0.9,0.5-1.4,0.4c-0.5-0.1-0.9-0.5-1-1.1l-1-3.8l-2.5,0.7l-5.1,10.7l4.5-0.5l2.5,3.7
			c0,0,3.1-6.8,5.2-11.2L26.9,39.9z"/>
		<g>
			<path fill="#FFFFFF" d="M34.4,25.5L33.9,26c-0.2,0.2-0.4,0.2-0.6,0.2c-0.2,0-0.4-0.1-0.6-0.2l-1.9-1.9v4.6c0,0.5-0.4,0.8-0.8,0.8
				h-0.8c-0.4,0-0.8-0.3-0.8-0.8v-4.6L26.5,26c-0.1,0.2-0.4,0.2-0.6,0.2c-0.2,0-0.4-0.1-0.6-0.2l-0.5-0.5c-0.2-0.2-0.2-0.4-0.2-0.6
				c0-0.2,0.1-0.4,0.2-0.6l4.2-4.2c0.1-0.2,0.4-0.2,0.6-0.2s0.4,0.1,0.6,0.2l4.2,4.2c0.1,0.2,0.2,0.4,0.2,0.6
				C34.7,25.2,34.6,25.4,34.4,25.5z"/>
		</g>
	</g>
</g>
</svg>
