<?xml version="1.0" encoding="utf-8"?>
<!-- Generator: Adobe Illustrator 17.1.0, SVG Export Plug-In . SVG Version: 6.00 Build 0)  -->
<!DOCTYPE svg PUBLIC "-//W3C//DTD SVG 1.1//EN" "http://www.w3.org/Graphics/SVG/1.1/DTD/svg11.dtd">
<svg version="1.1" id="Layer_1" xmlns="http://www.w3.org/2000/svg" xmlns:xlink="http://www.w3.org/1999/xlink" x="0px" y="0px"
	 viewBox="0 0 60 60" enable-background="new 0 0 60 60" xml:space="preserve">
<rect width="60" height="60"/>
<g>
	<path fill="#FFFFFF" d="M43.1,43.9H16.9c-2.2,0-4.1-1.8-4.1-4.1V20.4c0-2.3,1.8-4.1,4.1-4.1h26.3c2.2,0,4.1,1.8,4.1,4.1v19.4
		C47.2,42.1,45.4,43.9,43.1,43.9z M16.9,18.7c-0.9,0-1.6,0.7-1.6,1.6v19.4c0,0.9,0.7,1.6,1.6,1.6h26.3c0.9,0,1.6-0.7,1.6-1.6V20.4
		c0-0.9-0.7-1.6-1.6-1.6H16.9z"/>
	<g>
		<path fill="#FFFFFF" d="M22.9,31.3c-1.6,0-2.8-1.3-2.8-2.8s1.3-2.8,2.8-2.8c1.6,0,2.8,1.3,2.8,2.8S24.5,31.3,22.9,31.3z"/>
		<path fill="#FFFFFF" d="M32.2,27.4c0,0.3-0.2,0.5-0.5,0.5h-1c-0.3,0-0.5-0.2-0.5-0.5v-1c0-0.3,0.2-0.5,0.5-0.5h1
			c0.3,0,0.5,0.2,0.5,0.5V27.4z M41.7,27.4c0,0.3-0.3,0.5-0.6,0.5h-6.8c-0.3,0-0.6-0.2-0.6-0.5v-1c0-0.3,0.3-0.5,0.6-0.5h6.8
			c0.3,0,0.6,0.2,0.6,0.5V27.4z"/>
		<path fill="#FFFFFF" d="M32.2,30.6c0,0.3-0.2,0.5-0.5,0.5h-1c-0.3,0-0.5-0.2-0.5-0.5v-1c0-0.3,0.2-0.5,0.5-0.5h1
			c0.3,0,0.5,0.2,0.5,0.5V30.6z M41.7,30.6c0,0.3-0.3,0.5-0.6,0.5h-6.8c-0.3,0-0.6-0.2-0.6-0.5v-1c0-0.3,0.3-0.5,0.6-0.5h6.8
			c0.3,0,0.6,0.2,0.6,0.5V30.6z"/>
		<path fill="#FFFFFF" d="M32.2,33.8c0,0.3-0.2,0.5-0.5,0.5h-1c-0.3,0-0.5-0.2-0.5-0.5v-1c0-0.3,0.2-0.5,0.5-0.5h1
			c0.3,0,0.5,0.2,0.5,0.5V33.8z M41.7,33.8c0,0.3-0.3,0.5-0.6,0.5h-6.8c-0.3,0-0.6-0.2-0.6-0.5v-1c0-0.3,0.3-0.5,0.6-0.5h6.8
			c0.3,0,0.6,0.2,0.6,0.5V33.8z"/>
		<path fill="#FFFFFF" d="M32.2,37c0,0.3-0.2,0.5-0.5,0.5h-1c-0.3,0-0.5-0.2-0.5-0.5v-1c0-0.3,0.2-0.5,0.5-0.5h1
			c0.3,0,0.5,0.2,0.5,0.5V37z M41.7,37c0,0.3-0.3,0.5-0.6,0.5h-6.8c-0.3,0-0.6-0.2-0.6-0.5v-1c0-0.3,0.3-0.5,0.6-0.5h6.8
			c0.3,0,0.6,0.2,0.6,0.5V37z"/>
	</g>
	<path fill="#FFFFFF" d="M20.1,32.2c-1.6,0.1-1.8,2.3-1.8,3.7c0,0.8,0.5,1.3,1.4,1.3h6.6c0.9,0,1.4-0.5,1.4-1.3
		c0-1.3-0.2-3.6-1.8-3.7c0,0-0.1,0.1-0.1,0.1c-0.5,0.3-1.4,1-2.7,1c-1.3,0-2.2-0.6-2.7-1C20.2,32.3,20.1,32.2,20.1,32.2z"/>
</g>
</svg>
