<?xml version="1.0" encoding="utf-8"?>
<!-- Generator: Adobe Illustrator 17.1.0, SVG Export Plug-In . SVG Version: 6.00 Build 0)  -->
<!DOCTYPE svg PUBLIC "-//W3C//DTD SVG 1.1//EN" "http://www.w3.org/Graphics/SVG/1.1/DTD/svg11.dtd">
<svg version="1.1" id="Layer_1" xmlns="http://www.w3.org/2000/svg" xmlns:xlink="http://www.w3.org/1999/xlink" x="0px" y="0px"
	 viewBox="0 0 60 60" enable-background="new 0 0 60 60" xml:space="preserve">
<g id="Event">
	<rect width="60" height="60"/>
	<path fill="#FFFFFF" d="M43.5,41.5c0,1.1-0.9,2.1-2.1,2.1H18.6c-1.1,0-2.1-0.9-2.1-2.1V20.7c0-1.1,0.9-2.1,2.1-2.1h2.1v-1.6
		c0-1.4,1.2-2.6,2.6-2.6h1c1.4,0,2.6,1.2,2.6,2.6v1.6h6.2v-1.6c0-1.4,1.2-2.6,2.6-2.6h1c1.4,0,2.6,1.2,2.6,2.6v1.6h2.1
		c1.1,0,2.1,0.9,2.1,2.1V41.5z M23.2,29.5v-4.7h-4.7v4.7H23.2z M23.2,35.8v-5.2h-4.7v5.2H23.2z M23.2,41.5v-4.7h-4.7v4.7H23.2z
		 M24.8,17.1c0-0.3-0.2-0.5-0.5-0.5h-1c-0.3,0-0.5,0.2-0.5,0.5v4.7c0,0.3,0.2,0.5,0.5,0.5h1c0.3,0,0.5-0.2,0.5-0.5V17.1z M29.5,29.5
		v-4.7h-5.2v4.7H29.5z M29.5,35.8v-5.2h-5.2v5.2H29.5z M29.5,41.5v-4.7h-5.2v4.7H29.5z M35.7,29.5v-4.7h-5.2v4.7H35.7z M35.7,35.8
		v-5.2h-5.2v5.2H35.7z M35.7,41.5v-4.7h-5.2v4.7H35.7z M37.3,17.1c0-0.3-0.2-0.5-0.5-0.5h-1c-0.3,0-0.5,0.2-0.5,0.5v4.7
		c0,0.3,0.2,0.5,0.5,0.5h1c0.3,0,0.5-0.2,0.5-0.5V17.1z M41.4,29.5v-4.7h-4.7v4.7H41.4z M41.4,35.8v-5.2h-4.7v5.2H41.4z M41.4,41.5
		v-4.7h-4.7v4.7H41.4z"/>
</g>
</svg>
