<?xml version="1.0" encoding="utf-8"?>
<!-- Generator: Adobe Illustrator 17.1.0, SVG Export Plug-In . SVG Version: 6.00 Build 0)  -->
<!DOCTYPE svg PUBLIC "-//W3C//DTD SVG 1.1//EN" "http://www.w3.org/Graphics/SVG/1.1/DTD/svg11.dtd">
<svg version="1.1" id="Layer_1" xmlns="http://www.w3.org/2000/svg" xmlns:xlink="http://www.w3.org/1999/xlink" x="0px" y="0px"
	 viewBox="0 0 60 60" enable-background="new 0 0 60 60" xml:space="preserve">
<g id="Multimedia">
	<rect width="60" height="60"/>
	<g>
		<path fill="#FFFFFF" d="M27.7,41.9H16.6c-2.9,0-5.3-2.4-5.3-5.3V25.4c0-2.9,2.4-5.3,5.3-5.3h11.2c2.9,0,5.3,2.4,5.3,5.3h-1.4
			c0-2.1-1.7-3.9-3.9-3.9H16.6c-2.1,0-3.9,1.7-3.9,3.9v11.2c0,2.1,1.7,3.9,3.9,3.9h11.2c2.1,0,3.9-1.7,3.9-3.9H33
			C33,39.5,30.6,41.9,27.7,41.9z"/>
		<path fill="#FFFFFF" d="M42.5,33.6c-0.1,0-0.2,0.1-0.3,0.1c-0.4,0-0.7-0.3-0.7-0.7c0-0.9,1.3-0.6,1.3-2s-1.3-1.1-1.3-2
			c0-0.4,0.3-0.7,0.7-0.7c0.1,0,0.2,0,0.3,0.1c1.1,0.4,1.7,1.5,1.7,2.6S43.6,33.2,42.5,33.6z M43.6,36.3c-0.1,0-0.2,0.1-0.3,0.1
			c-0.4,0-0.7-0.3-0.7-0.7c0-0.3,0.2-0.5,0.4-0.7c0.3-0.2,0.6-0.3,0.9-0.5c1.1-0.8,1.8-2.1,1.8-3.5s-0.7-2.7-1.8-3.5
			c-0.3-0.2-0.6-0.3-0.9-0.5c-0.3-0.1-0.4-0.3-0.4-0.7c0-0.4,0.3-0.7,0.7-0.7c0.1,0,0.2,0,0.3,0.1c2.1,0.9,3.5,3,3.5,5.3
			S45.8,35.4,43.6,36.3z M44.8,38.9c-0.1,0-0.2,0.1-0.3,0.1c-0.4,0-0.7-0.3-0.7-0.7c0-0.3,0.2-0.5,0.4-0.7c0.2-0.1,0.3-0.1,0.5-0.2
			c0.3-0.2,0.6-0.4,0.9-0.6c1.8-1.4,2.9-3.5,2.9-5.8s-1.1-4.4-2.9-5.8c-0.3-0.2-0.6-0.4-0.9-0.6c-0.2-0.1-0.3-0.1-0.5-0.2
			c-0.3-0.2-0.4-0.3-0.4-0.7c0-0.4,0.3-0.7,0.7-0.7c0.1,0,0.2,0,0.3,0.1c3.2,1.4,5.2,4.5,5.2,7.9S47.9,37.6,44.8,38.9z"/>
		<path fill="#FFFFFF" d="M38.4,39.6c-0.4,0-0.7-0.2-1-0.4L33.1,35h-3.2c-0.8,0-1.4-0.6-1.4-1.4v-5.1c0-0.8,0.6-1.4,1.4-1.4h3.2
			l4.2-4.2c0.3-0.3,0.6-0.4,1-0.4c0.8,0,1.4,0.6,1.4,1.4v14.4C39.8,39,39.2,39.6,38.4,39.6z M29.9,28.2c-0.1,0-0.2,0.1-0.2,0.2v5.1
			c0,0.1,0.1,0.2,0.2,0.2h3.7l4.6,4.6c0.2,0.1,0.4,0,0.4-0.2V23.8c0-0.2-0.3-0.3-0.4-0.2l-4.6,4.6H29.9z"/>
	</g>
	<g>
		<path fill="#FFFFFF" d="M18.1,35c-0.2,0.1-0.3,0-0.3-0.2v-7.7c0-0.2,0.1-0.3,0.3-0.2l7,3.9c0.2,0.1,0.2,0.2,0,0.3L18.1,35z"/>
	</g>
</g>
</svg>
