<?xml version="1.0" encoding="utf-8"?>
<!-- Generator: Adobe Illustrator 17.1.0, SVG Export Plug-In . SVG Version: 6.00 Build 0)  -->
<!DOCTYPE svg PUBLIC "-//W3C//DTD SVG 1.1//EN" "http://www.w3.org/Graphics/SVG/1.1/DTD/svg11.dtd">
<svg version="1.1" id="Layer_1" xmlns="http://www.w3.org/2000/svg" xmlns:xlink="http://www.w3.org/1999/xlink" x="0px" y="0px"
	 viewBox="0 0 60 60" enable-background="new 0 0 60 60" xml:space="preserve">
<g id="Webform">
	<rect width="60" height="60"/>
	<path fill="#FFFFFF" d="M37.9,43.3c-0.2,0.2-0.5,0.2-0.7,0l-2.8-2.8c-0.2-0.2-0.2-0.5,0-0.7l0.7-0.7c0.2-0.2,0.5-0.2,0.7,0l1.7,1.7
		l4.2-4.2c0.2-0.2,0.5-0.2,0.7,0l0.7,0.7c0.2,0.2,0.2,0.5,0,0.7L37.9,43.3z"/>
	<path fill="#FFFFFF" d="M34.6,48.1c-2,0-3.6-1.6-3.6-3.5l0-9.1c0-0.9,0.4-1.8,1.1-2.5c0.7-0.7,1.6-1,2.6-1l8.4,0
		c2,0,3.6,1.6,3.6,3.5l0,9.1c0,1.9-1.6,3.5-3.6,3.5L34.6,48.1z M42.9,33l-8.4,0c-0.7,0-1.3,0.3-1.8,0.7c-0.5,0.5-0.7,1.1-0.7,1.7
		l0.2,9.1c0,1.3,0.8,2.4,2.8,2.4v0.5L34.8,47l8.3,0c1.4,0,2.5-1.1,2.5-2.4l0-9.1C45.5,34.1,44.3,33,42.9,33z"/>
	<path fill="#FFFFFF" d="M46,23c0,3.3-2.7,6-6,6H19c-3.3,0-6-2.7-6-6V20c0-3.3,2.7-6,6-6H40c3.3,0,6,2.7,6,6V23z M45,20
		c0-2.8-2.3-5-5-5H19c-2.8,0-5,2.3-5,5V23c0,2.8,2.3,5,5,5H40c2.8,0,5-2.3,5-5V20z"/>
	<path fill="#FFFFFF" d="M20.6,47.9c-4.4,0-8-3.6-8-8s3.6-8,8-8c4.4,0,8,3.6,8,8S25.1,47.9,20.6,47.9z M20.6,33.1
		c-3.8,0-6.8,3.1-6.8,6.8c0,3.8,3.1,6.8,6.8,6.8s6.8-3.1,6.8-6.8C27.5,36.2,24.4,33.1,20.6,33.1z"/>
	<circle fill="#FFFFFF" cx="20.6" cy="39.9" r="2.3"/>
	<g>
		<path fill="#FFFFFF" d="M18.9,17.6l1.5-0.2v1.9h2.2v1.2h-2.2V23c0,0.5,0.1,0.9,0.2,1.1s0.4,0.3,0.8,0.3c0.3,0,0.5,0,0.7-0.1
			c0.2-0.1,0.4-0.1,0.5-0.2l0.2,1.2c-0.2,0.1-0.4,0.1-0.7,0.2c-0.3,0.1-0.6,0.1-1,0.1c-0.4,0-0.8-0.1-1.1-0.2s-0.5-0.3-0.7-0.5
			c-0.2-0.2-0.3-0.5-0.4-0.8s-0.1-0.7-0.1-1.1V17.6z"/>
		<path fill="#FFFFFF" d="M23.5,22.4c0-0.6,0.1-1,0.2-1.5s0.4-0.8,0.7-1c0.3-0.3,0.6-0.5,0.9-0.6c0.4-0.1,0.7-0.2,1.1-0.2
			c0.9,0,1.5,0.3,2,0.8c0.5,0.5,0.7,1.3,0.7,2.4c0,0.1,0,0.2,0,0.3c0,0.1,0,0.2,0,0.3H25c0,0.5,0.2,0.9,0.5,1.2
			c0.3,0.3,0.8,0.4,1.4,0.4c0.4,0,0.7,0,1-0.1c0.3-0.1,0.5-0.1,0.7-0.2l0.2,1.2c-0.1,0-0.2,0.1-0.3,0.1s-0.3,0.1-0.5,0.1
			c-0.2,0-0.4,0.1-0.6,0.1c-0.2,0-0.4,0-0.6,0c-0.6,0-1-0.1-1.4-0.2s-0.7-0.4-1-0.7c-0.3-0.3-0.5-0.6-0.6-1
			C23.6,23.3,23.5,22.9,23.5,22.4z M27.8,21.8c0-0.2,0-0.4-0.1-0.6c-0.1-0.2-0.1-0.3-0.2-0.5s-0.2-0.2-0.4-0.3
			c-0.2-0.1-0.3-0.1-0.6-0.1c-0.2,0-0.4,0-0.6,0.1s-0.3,0.2-0.4,0.3c-0.1,0.1-0.2,0.3-0.3,0.5c-0.1,0.2-0.1,0.4-0.1,0.5H27.8z"/>
		<path fill="#FFFFFF" d="M33,21.2l1.3-1.9h1.5l-2.1,3c0.4,0.6,0.9,1.1,1.3,1.7c0.4,0.6,0.7,1.1,1,1.6h-1.6
			c-0.1-0.1-0.2-0.3-0.3-0.5c-0.1-0.2-0.2-0.4-0.4-0.5c-0.1-0.2-0.3-0.4-0.4-0.6c-0.1-0.2-0.3-0.4-0.4-0.5c-0.3,0.3-0.6,0.7-0.8,1.1
			c-0.3,0.4-0.5,0.7-0.7,1H30c0.1-0.2,0.3-0.5,0.4-0.8s0.4-0.5,0.6-0.8s0.4-0.6,0.6-0.8c0.2-0.3,0.4-0.5,0.6-0.8l-2.1-3.1h1.6
			L33,21.2z"/>
		<path fill="#FFFFFF" d="M37,17.6l1.5-0.2v1.9h2.2v1.2h-2.2V23c0,0.5,0.1,0.9,0.2,1.1s0.4,0.3,0.8,0.3c0.3,0,0.5,0,0.7-0.1
			c0.2-0.1,0.4-0.1,0.5-0.2l0.2,1.2c-0.2,0.1-0.4,0.1-0.7,0.2c-0.3,0.1-0.6,0.1-1,0.1c-0.4,0-0.8-0.1-1.1-0.2s-0.5-0.3-0.7-0.5
			c-0.2-0.2-0.3-0.5-0.4-0.8S37,23.4,37,23V17.6z"/>
	</g>
</g>
</svg>
