<?xml version="1.0" encoding="utf-8"?>
<!-- Generator: Adobe Illustrator 17.1.0, SVG Export Plug-In . SVG Version: 6.00 Build 0)  -->
<!DOCTYPE svg PUBLIC "-//W3C//DTD SVG 1.1//EN" "http://www.w3.org/Graphics/SVG/1.1/DTD/svg11.dtd">
<svg version="1.1" id="Layer_1" xmlns="http://www.w3.org/2000/svg" xmlns:xlink="http://www.w3.org/1999/xlink" x="0px" y="0px"
	 viewBox="0 0 60 60" enable-background="new 0 0 60 60" xml:space="preserve">
<g id="Teamspace">
	<rect width="60" height="60"/>
	<g>
		<g>
			<path fill="#FFFFFF" d="M38.2,18.8c-1-0.4-1.3-0.7-1.3-1.3c0-0.4,0.3-0.3,0.4-1c0.1-0.3,0.3,0,0.4-0.7c0-0.3-0.1-0.3-0.1-0.3
				s0.1-0.4,0.1-0.7c0-0.4-0.2-1.4-1.6-1.4c-1.4,0-1.6,1-1.6,1.4c0,0.3,0.1,0.7,0.1,0.7s-0.1,0.1-0.1,0.3c0.1,0.7,0.3,0.4,0.4,0.7
				c0.1,0.7,0.4,0.6,0.4,1c0,0.6-0.3,0.9-1.3,1.3c-1,0.4-1.6,0.7-1.6,1c0,0.2,0,0.8,0,0.8h3.8h3.8c0,0,0-0.6,0-0.8
				C39.9,19.5,39.2,19.2,38.2,18.8z"/>
		</g>
		<g>
			<path fill="#FFFFFF" d="M45.9,26.6c-1-0.4-1.3-0.7-1.3-1.3c0-0.4,0.3-0.3,0.4-1c0.1-0.3,0.3,0,0.4-0.7c0-0.3-0.1-0.3-0.1-0.3
				s0.1-0.4,0.1-0.7c0-0.4-0.2-1.4-1.6-1.4s-1.6,1-1.6,1.4c0,0.3,0.1,0.7,0.1,0.7s-0.1,0.1-0.1,0.3c0.1,0.7,0.3,0.4,0.4,0.7
				c0.1,0.7,0.4,0.6,0.4,1c0,0.6-0.3,0.9-1.3,1.3c-1,0.4-1.6,0.7-1.6,1c0,0.2,0,0.8,0,0.8h3.8h3.8c0,0,0-0.6,0-0.8
				C47.5,27.3,46.9,26.9,45.9,26.6z"/>
		</g>
		<g>
			<path fill="#FFFFFF" d="M21.5,18.8c1-0.4,1.3-0.7,1.3-1.3c0-0.4-0.3-0.3-0.4-1c-0.1-0.3-0.3,0-0.4-0.7c0-0.3,0.1-0.3,0.1-0.3
				s-0.1-0.4-0.1-0.7c0-0.4,0.2-1.4,1.6-1.4s1.6,1,1.6,1.4c0,0.3-0.1,0.7-0.1,0.7s0.1,0.1,0.1,0.3c-0.1,0.7-0.3,0.4-0.4,0.7
				c-0.1,0.7-0.4,0.6-0.4,1c0,0.6,0.3,0.9,1.3,1.3c1,0.4,1.6,0.7,1.6,1c0,0.2,0,0.8,0,0.8h-3.8h-3.8c0,0,0-0.6,0-0.8
				C19.9,19.5,20.5,19.2,21.5,18.8z"/>
		</g>
		<g>
			<path fill="#FFFFFF" d="M37.2,45.2c-1-0.4-1.3-0.7-1.3-1.3c0-0.4,0.3-0.3,0.4-1c0.1-0.3,0.3,0,0.4-0.7c0-0.3-0.1-0.3-0.1-0.3
				s0.1-0.4,0.1-0.7c0-0.4-0.2-1.4-1.6-1.4c-1.4,0-1.6,1-1.6,1.4c0,0.3,0.1,0.7,0.1,0.7s-0.1,0.1-0.1,0.3c0.1,0.7,0.3,0.4,0.4,0.7
				c0.1,0.7,0.4,0.6,0.4,1c0,0.6-0.3,0.9-1.3,1.3c-1,0.4-1.6,0.7-1.6,1c0,0.2,0,0.8,0,0.8h3.8h3.8c0,0,0-0.6,0-0.8
				C38.9,45.9,38.2,45.5,37.2,45.2z"/>
		</g>
		<path fill="#FFFFFF" d="M30,23.5c-4.1,0-7.4,3.3-7.4,7.4c0,4.1,3.3,7.4,7.4,7.4c4.1,0,7.4-3.3,7.4-7.4C37.3,26.8,34,23.5,30,23.5z
			 M33.9,34.7H30h-3.9c0,0,0-0.6,0-0.9c0-0.3,0.7-0.6,1.7-1c1-0.4,1.4-0.7,1.4-1.4c0-0.4-0.3-0.3-0.5-1c-0.1-0.3-0.3,0-0.4-0.7
			c0-0.3,0.2-0.4,0.2-0.4s-0.1-0.4-0.1-0.7c0-0.4,0.2-1.4,1.7-1.4s1.7,1,1.7,1.4c0,0.3-0.1,0.7-0.1,0.7s0.2,0.1,0.2,0.4
			c-0.1,0.7-0.3,0.4-0.4,0.7c-0.1,0.7-0.5,0.6-0.5,1c0,0.7,0.3,1,1.4,1.4c1,0.4,1.7,0.8,1.7,1C33.9,34.1,33.9,34.7,33.9,34.7z"/>
		<g>
			<path fill="#FFFFFF" d="M21.5,45.2c1-0.4,1.3-0.7,1.3-1.3c0-0.4-0.3-0.3-0.4-1c-0.1-0.3-0.3,0-0.4-0.7c0-0.3,0.1-0.3,0.1-0.3
				s-0.1-0.4-0.1-0.7c0-0.4,0.2-1.4,1.6-1.4s1.6,1,1.6,1.4c0,0.3-0.1,0.7-0.1,0.7s0.1,0.1,0.1,0.3c-0.1,0.7-0.3,0.4-0.4,0.7
				c-0.1,0.7-0.4,0.6-0.4,1c0,0.6,0.3,0.9,1.3,1.3c1,0.4,1.6,0.7,1.6,1c0,0.2,0,0.8,0,0.8h-3.8h-3.8c0,0,0-0.6,0-0.8
				C19.9,45.9,20.5,45.5,21.5,45.2z"/>
		</g>
		<g>
			<path fill="#FFFFFF" d="M13.9,26.6c1-0.4,1.3-0.7,1.3-1.3c0-0.4-0.3-0.3-0.4-1c-0.1-0.3-0.3,0-0.4-0.7c0-0.3,0.1-0.3,0.1-0.3
				s-0.1-0.4-0.1-0.7c0-0.4,0.2-1.4,1.6-1.4s1.6,1,1.6,1.4c0,0.3-0.1,0.7-0.1,0.7s0.1,0.1,0.1,0.3c-0.1,0.7-0.3,0.4-0.4,0.7
				c-0.1,0.7-0.4,0.6-0.4,1c0,0.6,0.3,0.9,1.3,1.3c1,0.4,1.6,0.7,1.6,1c0,0.2,0,0.8,0,0.8H16h-3.8c0,0,0-0.6,0-0.8
				C12.2,27.3,12.9,26.9,13.9,26.6z"/>
		</g>
		<g>
			<path fill="#FFFFFF" d="M43.9,36.8c-1-0.4-1.3-0.7-1.3-1.3c0-0.4,0.3-0.3,0.4-1c0.1-0.3,0.3,0,0.4-0.7c0-0.3-0.1-0.3-0.1-0.3
				s0.1-0.4,0.1-0.7c0-0.4-0.2-1.4-1.6-1.4s-1.6,1-1.6,1.4c0,0.3,0.1,0.7,0.1,0.7s-0.1,0.1-0.1,0.3c0.1,0.7,0.3,0.4,0.4,0.7
				c0.1,0.7,0.4,0.6,0.4,1c0,0.6-0.3,0.9-1.3,1.3c-1,0.4-1.6,0.7-1.6,1c0,0.2,0,0.8,0,0.8h3.8h3.8c0,0,0-0.6,0-0.8
				C45.5,37.6,44.9,37.2,43.9,36.8z"/>
		</g>
		<g>
			<path fill="#FFFFFF" d="M15.9,36.8c1-0.4,1.3-0.7,1.3-1.3c0-0.4-0.3-0.3-0.4-1c-0.1-0.3-0.3,0-0.4-0.7c0-0.3,0.1-0.3,0.1-0.3
				s-0.1-0.4-0.1-0.7c0-0.4,0.2-1.4,1.6-1.4c1.4,0,1.6,1,1.6,1.4c0,0.3-0.1,0.7-0.1,0.7s0.1,0.1,0.1,0.3c-0.1,0.7-0.3,0.4-0.4,0.7
				c-0.1,0.7-0.4,0.6-0.4,1c0,0.6,0.3,0.9,1.3,1.3c1,0.4,1.6,0.7,1.6,1c0,0.2,0,0.8,0,0.8H18h-3.8c0,0,0-0.6,0-0.8
				C14.2,37.6,14.9,37.2,15.9,36.8z"/>
		</g>
	</g>
</g>
</svg>
