<?xml version="1.0" encoding="utf-8"?>
<!-- Generator: Adobe Illustrator 17.1.0, SVG Export Plug-In . SVG Version: 6.00 Build 0)  -->
<!DOCTYPE svg PUBLIC "-//W3C//DTD SVG 1.1//EN" "http://www.w3.org/Graphics/SVG/1.1/DTD/svg11.dtd">
<svg version="1.1" id="Layer_1" xmlns="http://www.w3.org/2000/svg" xmlns:xlink="http://www.w3.org/1999/xlink" x="0px" y="0px"
	 viewBox="0 0 60 60" enable-background="new 0 0 60 60" xml:space="preserve">
<g id="Question">
	<rect width="60" height="60"/>
	<g>
		<path fill="none" stroke="#FFFFFF" stroke-width="0.9412" stroke-miterlimit="10" d="M30,40.9c-0.9,0-1.8-0.1-2.6-0.1
			c-2.3,2.1-5.1,3.5-8.2,4.3c-0.6,0.2-1.3,0.3-2,0.4c-0.4,0-0.8-0.3-0.9-0.7c0,0,0,0,0,0c-0.1-0.4,0.2-0.7,0.5-1
			c1.1-1.3,2.4-2.3,3.2-5.3c-3.7-2.1-6-5.3-6-8.9c0-6.3,7.2-11.4,16-11.4s16,5.1,16,11.4S38.8,40.9,30,40.9z"/>
	</g>
	<g>
		<path fill="#FFFFFF" d="M30,22.6c-2.2,0-3.9,0.9-5,2.9c-0.1,0.2-0.1,0.4,0.1,0.6l1.8,1.4c0.1,0.1,0.2,0.1,0.3,0.1
			c0.1,0,0.3-0.1,0.3-0.2c0.6-0.8,0.9-1.1,1.2-1.2c0.2-0.2,0.7-0.3,1.2-0.3c0.9,0,1.7,0.6,1.7,1.1c0,0.7-0.4,1.1-1.2,1.4
			c-1,0.4-2.3,1.6-2.3,2.9v0.5c0,0.2,0.2,0.4,0.4,0.4H31c0.2,0,0.4-0.2,0.4-0.4c0-0.3,0.4-1,1-1.3c1-0.6,2.4-1.4,2.4-3.4
			C34.9,24.5,32.3,22.6,30,22.6z"/>
		<path fill="#FFFFFF" d="M31.5,33.4c0-0.2-0.2-0.4-0.4-0.4h-2.6c-0.2,0-0.4,0.2-0.4,0.4V36c0,0.2,0.2,0.4,0.4,0.4H31
			c0.2,0,0.4-0.2,0.4-0.4V33.4z"/>
	</g>
</g>
</svg>
