<?xml version="1.0" encoding="utf-8"?>
<!-- Generator: Adobe Illustrator 17.1.0, SVG Export Plug-In . SVG Version: 6.00 Build 0)  -->
<!DOCTYPE svg PUBLIC "-//W3C//DTD SVG 1.1//EN" "http://www.w3.org/Graphics/SVG/1.1/DTD/svg11.dtd">
<svg version="1.1" id="Layer_1" xmlns="http://www.w3.org/2000/svg" xmlns:xlink="http://www.w3.org/1999/xlink" x="0px" y="0px"
	 viewBox="0 0 60 60" enable-background="new 0 0 60 60" xml:space="preserve">
<g id="Blog">
	<rect width="60" height="60"/>
	<g>
		<path fill="#FFFFFF" d="M44.6,21.6l0,18.5l-3,2.9l-2.9-3l0-18.5L44.6,21.6z M43.3,38.3l-3.3,0l0,1.3l0.8,0.8l0.9-0.9l0.9,0.9
			l0.8-0.8L43.3,38.3z M40.2,22.5c0,0-0.1,0.1-0.1,0.2l0,13.2c0,0.1,0,0.1,0.1,0.2c0.1,0.1,0.2,0.1,0.3,0c0,0,0.1-0.1,0.1-0.2
			l0-13.2c0-0.1,0-0.1-0.1-0.2C40.4,22.4,40.3,22.4,40.2,22.5z M44.6,18.3l0,2.4l-5.9,0l0-2.3c0-0.3,0.1-0.7,0.4-0.9
			c0.2-0.2,0.6-0.4,0.9-0.4l3.3,0c0.3,0,0.7,0.1,0.9,0.4C44.5,17.6,44.6,18,44.6,18.3z"/>
	</g>
	<path fill="#FFFFFF" d="M36.2,43.1H19.3c-1.6,0-2.8-1.3-2.8-2.8V19.9c0-1.6,1.3-2.8,2.8-2.8h16.9V43.1z M19.3,19
		c-0.5,0-0.8,0.4-0.8,0.8v20.4c0,0.5,0.4,0.8,0.8,0.8h14.9V19H19.3z"/>
	<polygon fill="#FFFFFF" points="31,19 31,29 28.6,27 28.4,27 26,29 26,19 	"/>
</g>
</svg>
