<?xml version="1.0" encoding="utf-8"?>
<!-- Generator: Adobe Illustrator 17.1.0, SVG Export Plug-In . SVG Version: 6.00 Build 0)  -->
<!DOCTYPE svg PUBLIC "-//W3C//DTD SVG 1.1//EN" "http://www.w3.org/Graphics/SVG/1.1/DTD/svg11.dtd">
<svg version="1.1" id="Layer_1" xmlns="http://www.w3.org/2000/svg" xmlns:xlink="http://www.w3.org/1999/xlink" x="0px" y="0px"
	 viewBox="0 0 60 60" enable-background="new 0 0 60 60" xml:space="preserve">
<g id="Site_Announcement">
	<rect x="-1" y="-1" width="60" height="60"/>
	<path fill="#FFFFFF" d="M43.5,28c0,1.1-0.9,2-2,2v6c0,1.1-0.9,2-2,2c-2.8-2.3-7.3-5.5-12.7-5.9c-1.9,0.6-2.5,2.8-1.3,4
		c-1.1,1.8,0.3,3.1,2,4.4c-1,1.9-5,1.9-6.4,0.6c-0.9-2.8-2.3-5.6-1.2-9.1H18c-1.4,0-2.5-1.1-2.5-2.5v-3c0-1.4,1.1-2.5,2.5-2.5h7.5
		c6,0,11-3.5,14-6c1.1,0,2,0.9,2,2v6C42.6,26,43.5,26.9,43.5,28z M39.5,20.5c-4.1,3.1-8,4.9-12,5.4v4.2c4,0.4,7.9,2.2,12,5.3V20.5z"
		/>
</g>
</svg>
