<?xml version="1.0" encoding="utf-8"?>
<!-- Generator: Adobe Illustrator 17.1.0, SVG Export Plug-In . SVG Version: 6.00 Build 0)  -->
<!DOCTYPE svg PUBLIC "-//W3C//DTD SVG 1.1//EN" "http://www.w3.org/Graphics/SVG/1.1/DTD/svg11.dtd">
<svg version="1.1" id="Layer_1" xmlns="http://www.w3.org/2000/svg" xmlns:xlink="http://www.w3.org/1999/xlink" x="0px" y="0px"
	 viewBox="0 0 60 60" enable-background="new 0 0 60 60" xml:space="preserve">
<path d="M0,0v60h60V0H0z M15.8,44.1l0-9.2l4.6,0l0,9.2L15.8,44.1z M23.4,44.1l0-15.6l4.6,0l0,15.6L23.4,44.1z M30.9,44.1l0-11.9
	l4.6,0l0,11.9L30.9,44.1z M38.5,44.1l0-18.3l4.6,0l0,18.3L38.5,44.1z M33.6,26.4l-7.6-3.9l-10.5,8.3l-1.1-1.4l11.4-9l7.5,3.8
	l10.9-10.4l1.3,1.3L33.6,26.4z"/>
</svg>
