<?xml version="1.0" encoding="utf-8"?>
<!-- Generator: Adobe Illustrator 17.1.0, SVG Export Plug-In . SVG Version: 6.00 Build 0)  -->
<!DOCTYPE svg PUBLIC "-//W3C//DTD SVG 1.1//EN" "http://www.w3.org/Graphics/SVG/1.1/DTD/svg11.dtd">
<svg version="1.1" id="Layer_1" xmlns="http://www.w3.org/2000/svg" xmlns:xlink="http://www.w3.org/1999/xlink" x="0px" y="0px"
	 viewBox="0 0 60 60" enable-background="new 0 0 60 60" xml:space="preserve">
<g id="Page">
	<rect width="60" height="60"/>
	<g>
		<path fill="#FFFFFF" d="M40.8,22.8v19.9c0,0.6-0.5,1.2-1.2,1.2H20.5c-0.6,0-1.2-0.5-1.2-1.2V17.4c0-0.6,0.5-1.2,1.2-1.2h13.8
			c0.6,0,1.5,0.4,2,0.8l3.8,3.8C40.4,21.2,40.8,22.1,40.8,22.8z M39.3,23.9h-5c-0.6,0-1.2-0.5-1.2-1.2v-5H20.9v24.5h18.4V23.9z
			 M34.7,22.4h4.5c-0.1-0.2-0.2-0.4-0.3-0.5l-3.8-3.8c-0.1-0.1-0.3-0.2-0.5-0.3V22.4z"/>
	</g>
</g>
</svg>
