<?xml version="1.0" encoding="utf-8"?>
<!-- Generator: Adobe Illustrator 17.1.0, SVG Export Plug-In . SVG Version: 6.00 Build 0)  -->
<!DOCTYPE svg PUBLIC "-//W3C//DTD SVG 1.1//EN" "http://www.w3.org/Graphics/SVG/1.1/DTD/svg11.dtd">
<svg version="1.1" id="Layer_1" xmlns="http://www.w3.org/2000/svg" xmlns:xlink="http://www.w3.org/1999/xlink" x="0px" y="0px"
	 viewBox="0 0 60 60" enable-background="new 0 0 60 60" xml:space="preserve">
<g>
	<path d="M42.2,19H19.4c-0.7,0-0.4,0-0.4,1h19.9c1.8,0,3.1,1.5,3.1,3.4V39h0.2c0.7,0,1.8-0.9,1.8-1.6V36V20.1
		C44,19.4,42.9,19,42.2,19z"/>
	<path d="M38.8,22H16.2c-0.7,0-1.2,0.5-1.2,1.2v17.6c0,0.7,0.5,1.2,1.2,1.2h22.6c0.7,0,1.2-0.5,1.2-1.2V23.2
		C40,22.5,39.5,22,38.8,22z"/>
	<path d="M45.1,16H22.3c-0.6,0-0.4,0.4-0.3,1h20.2c1.8,0,3.8,1.2,3.8,3.1v15.6c0.5-0.3,1-0.8,1-1.2V17.2C47,16.5,45.8,16,45.1,16z"
		/>
	<path d="M0,0v60h60V0H0z M49,34.5c0,1.6-1.5,3-3.1,3.4c-0.3,1.6-2,3.1-3.7,3.1h0c-0.2,1.7-1.6,3-3.3,3H16.1c-1.8,0-3.1-1.5-3.1-3.3
		V23.4c0-1.8,1.3-3.3,3.1-3.3c0-1.7,1.2-2.8,2.9-3c0.1-1.8,1.5-3,3.3-3h22.8c1.8,0,3.9,1.3,3.9,3.2V34.5z"/>
</g>
<circle fill="#FFFFFF" cx="20.2" cy="28.6" r="2.6"/>
<polygon fill="#FFFFFF" points="37.2,39.9 17.7,39.9 17.7,37.3 22.1,32.9 24.4,35.1 31.4,28 37.2,33.7 "/>
</svg>
