<?xml version="1.0" encoding="utf-8"?>
<!-- Generator: Adobe Illustrator 17.1.0, SVG Export Plug-In . SVG Version: 6.00 Build 0)  -->
<!DOCTYPE svg PUBLIC "-//W3C//DTD SVG 1.1//EN" "http://www.w3.org/Graphics/SVG/1.1/DTD/svg11.dtd">
<svg version="1.1" id="Layer_1" xmlns="http://www.w3.org/2000/svg" xmlns:xlink="http://www.w3.org/1999/xlink" x="0px" y="0px"
	 viewBox="0 0 60 60" enable-background="new 0 0 60 60" xml:space="preserve">
<g id="Custom_Content_Icon">
	<rect width="60" height="60"/>
	<g>
		<path fill="#FFFFFF" d="M40.8,22.8v19.9c0,0.6-0.5,1.2-1.2,1.2H20.5c-0.6,0-1.2-0.5-1.2-1.2V17.4c0-0.6,0.5-1.2,1.2-1.2h13.8
			c0.6,0,1.5,0.4,2,0.8l3.8,3.8C40.4,21.2,40.8,22.1,40.8,22.8z M39.3,23.9h-5c-0.6,0-1.2-0.5-1.2-1.2v-5H20.9v24.5h18.4V23.9z
			 M34.7,22.4h4.5c-0.1-0.2-0.2-0.4-0.3-0.5l-3.8-3.8c-0.1-0.1-0.3-0.2-0.5-0.3V22.4z"/>
	</g>
	<path fill="#FFFFFF" d="M32,28h-9c-0.3,0-0.5-0.2-0.5-0.5S22.7,27,23,27h9c0.3,0,0.5,0.2,0.5,0.5S32.3,28,32,28z"/>
	<path fill="#FFFFFF" d="M37,40H23c-0.3,0-0.5-0.2-0.5-0.5S22.7,39,23,39h14c0.3,0,0.5,0.2,0.5,0.5S37.3,40,37,40z"/>
	<path fill="#FFFFFF" d="M37,37H23c-0.3,0-0.5-0.2-0.5-0.5S22.7,36,23,36h14c0.3,0,0.5,0.2,0.5,0.5S37.3,37,37,37z"/>
	<path fill="#FFFFFF" d="M37,34H23c-0.3,0-0.5-0.2-0.5-0.5S22.7,33,23,33h14c0.3,0,0.5,0.2,0.5,0.5S37.3,34,37,34z"/>
	<path fill="#FFFFFF" d="M37,31H23c-0.3,0-0.5-0.2-0.5-0.5S22.7,30,23,30h14c0.3,0,0.5,0.2,0.5,0.5S37.3,31,37,31z"/>
	<rect x="23" y="20" fill="#FFFFFF" width="8" height="5"/>
</g>
</svg>
