<?xml version="1.0" encoding="utf-8"?>
<!-- Generator: Adobe Illustrator 17.1.0, SVG Export Plug-In . SVG Version: 6.00 Build 0)  -->
<!DOCTYPE svg PUBLIC "-//W3C//DTD SVG 1.1//EN" "http://www.w3.org/Graphics/SVG/1.1/DTD/svg11.dtd">
<svg version="1.1" id="Layer_1" xmlns="http://www.w3.org/2000/svg" xmlns:xlink="http://www.w3.org/1999/xlink" x="0px" y="0px"
	 viewBox="0 0 60 60" enable-background="new 0 0 60 60" xml:space="preserve">
<g id="External_resource">
	<rect width="60" height="60"/>
	<path fill="#FFFFFF" d="M30.3,15.6c-7.9,0-14.2,6.4-14.2,14.2c0,7.9,6.4,14.2,14.2,14.3c7.9,0,14.2-6.4,14.2-14.3
		C44.6,22,38.2,15.6,30.3,15.6z M26.3,18c-1,1.1-2,2.7-2.8,4.7h-3.5C21.6,20.6,23.8,18.9,26.3,18z M20.1,37h3.5
		c0.8,2,1.8,3.6,2.8,4.7C23.8,40.8,21.6,39.1,20.1,37z M29.4,42.1c-0.8-0.6-2.7-2.2-3.9-5.2h3.9V42.1z M29.4,22.7h-4
		c0.5-1.1,1-2,1.6-2.7c0.7-1,1.5-1.7,2-2.1c0.2-0.1,0.3-0.2,0.4-0.3V22.7z M40.5,22.7h-3.5c-0.8-2-1.8-3.6-2.8-4.7
		C36.8,18.9,39,20.6,40.5,22.7z M31.2,22.7v-5.2c0.8,0.6,2.7,2.2,3.9,5.2L31.2,22.7L31.2,22.7z M31.6,41.8c-0.2,0.1-0.3,0.2-0.4,0.3
		V37h4c-0.5,1.1-1,2-1.6,2.7C32.9,40.7,32.2,41.4,31.6,41.8z M34.3,41.6c1-1.1,2-2.6,2.8-4.7h3.5C39,39.1,36.8,40.8,34.3,41.6z"/>
	<path d="M19.1,24.3c0,0-2.7,4.7-0.1,10.7h22.5c0,0,2.7-5.7,0-10.8L19.1,24.3"/>
	<path fill="#FFFFFF" d="M37,25.5l-3.1,0c-0.8,0-1.6,0.3-2.1,0.9C31.3,27,31,27.8,31,28.6l-1.3,0c0-0.8-0.3-1.6-0.9-2.2
		c-0.6-0.6-1.3-0.9-2.1-0.9l-3,0c-0.8,0-1.6,0.3-2.1,0.9c-0.6,0.6-0.9,1.3-0.9,2.1l0,2.2c0,0.8,0.3,1.6,0.9,2.1
		c0.6,0.6,1.3,0.9,2.1,0.9l3.1,0c0.8,0,1.6-0.3,2.1-0.9c0.6-0.6,0.9-1.4,0.9-2.2l1.3,0c0,0.8,0.3,1.6,0.9,2.2
		c0.6,0.6,1.3,0.9,2.1,0.9l3,0c0.8,0,1.6-0.3,2.1-0.9c0.6-0.6,0.9-1.3,0.9-2.1l0-2.2c0-0.8-0.3-1.6-0.9-2.1
		C38.6,25.8,37.8,25.5,37,25.5z M27.7,28.6c-0.5,0-1-0.1-1.4,0.3c-0.4,0.4-0.4,1,0,1.4c0.4,0.4,0.9,0.3,1.4,0.3
		c0,0.3-0.1,0.5-0.3,0.8c-0.2,0.2-0.4,0.3-0.7,0.3l-3.1,0c-0.3,0-0.5-0.1-0.7-0.3c-0.2-0.2-0.3-0.4-0.3-0.7l0-2.2
		c0-0.3,0.1-0.5,0.3-0.7c0.2-0.2,0.4-0.3,0.7-0.3l3,0c0.3,0,0.5,0.1,0.7,0.3C27.6,28,27.7,28.3,27.7,28.6z M38,28.5l0,2.2
		c0,0.3-0.1,0.5-0.3,0.7c-0.2,0.2-0.4,0.3-0.7,0.3l-3,0c-0.3,0-0.5-0.1-0.7-0.3c-0.2-0.2-0.3-0.5-0.3-0.8c0.5,0,1,0.1,1.4-0.3
		c0.4-0.4,0.4-1,0-1.4c-0.4-0.4-0.9-0.3-1.4-0.3c0-0.3,0.1-0.6,0.3-0.8c0.2-0.2,0.4-0.3,0.7-0.3l3.1,0c0.3,0,0.5,0.1,0.7,0.3
		C37.9,28,38,28.2,38,28.5z"/>
</g>
</svg>
