<?xml version="1.0" encoding="utf-8"?>
<!-- Generator: Adobe Illustrator 17.0.2, SVG Export Plug-In . SVG Version: 6.00 Build 0)  -->
<!DOCTYPE svg PUBLIC "-//W3C//DTD SVG 1.1//EN" "http://www.w3.org/Graphics/SVG/1.1/DTD/svg11.dtd">
<svg version="1.1" id="Layer_1" xmlns="http://www.w3.org/2000/svg" xmlns:xlink="http://www.w3.org/1999/xlink" x="0px" y="0px"
	 width="55.062px" height="13.482px" viewBox="0 0 55.062 13.482" enable-background="new 0 0 55.062 13.482" xml:space="preserve">
<g>
	<path d="M1.079,2.196c-0.3,0-0.555-0.099-0.765-0.297C0.104,1.701,0,1.434,0,1.098s0.104-0.603,0.314-0.801
		C0.524,0.099,0.779,0,1.079,0s0.556,0.099,0.766,0.297c0.21,0.198,0.314,0.465,0.314,0.801S2.055,1.701,1.845,1.899
		C1.635,2.097,1.379,2.196,1.079,2.196z M1.926,13.248H0.252v-9.36h1.674V13.248z"/>
	<path d="M4.806,4.158C5.189,4.062,5.699,3.96,6.335,3.852S7.703,3.69,8.531,3.69c0.744,0,1.361,0.105,1.854,0.315
		c0.492,0.21,0.886,0.504,1.18,0.882s0.501,0.831,0.621,1.359c0.119,0.528,0.18,1.11,0.18,1.746v5.256h-1.674V8.352
		c0-0.576-0.039-1.068-0.117-1.476c-0.078-0.408-0.207-0.738-0.387-0.99c-0.181-0.252-0.421-0.435-0.721-0.549
		c-0.3-0.114-0.672-0.171-1.115-0.171c-0.181,0-0.366,0.006-0.559,0.018C7.602,5.196,7.418,5.211,7.244,5.229
		s-0.33,0.039-0.468,0.063C6.638,5.316,6.539,5.334,6.479,5.346v7.902H4.806V4.158z"/>
	<path d="M22.157,3.888c-0.468,1.752-1.017,3.432-1.647,5.04c-0.63,1.608-1.239,3.048-1.826,4.32h-1.513
		c-0.588-1.271-1.196-2.712-1.827-4.32c-0.63-1.608-1.179-3.288-1.646-5.04h1.8c0.145,0.588,0.315,1.215,0.513,1.881
		c0.198,0.666,0.408,1.326,0.631,1.98c0.222,0.654,0.446,1.287,0.675,1.899c0.228,0.611,0.443,1.158,0.647,1.638
		c0.204-0.479,0.42-1.026,0.648-1.638c0.228-0.612,0.453-1.245,0.675-1.899c0.222-0.654,0.432-1.314,0.63-1.98
		s0.369-1.293,0.513-1.881H22.157z"/>
	<path d="M31.896,8.568c0,0.744-0.108,1.417-0.324,2.016s-0.52,1.116-0.909,1.548c-0.39,0.433-0.854,0.765-1.395,0.999
		s-1.128,0.352-1.765,0.352c-0.636,0-1.224-0.117-1.764-0.352s-1.005-0.566-1.395-0.999c-0.391-0.432-0.693-0.948-0.909-1.548
		s-0.324-1.272-0.324-2.016c0-0.731,0.108-1.401,0.324-2.007s0.519-1.125,0.909-1.557c0.39-0.432,0.854-0.765,1.395-0.999
		c0.54-0.234,1.128-0.351,1.764-0.351c0.637,0,1.225,0.117,1.765,0.351c0.54,0.234,1.005,0.567,1.395,0.999
		c0.39,0.432,0.693,0.951,0.909,1.557S31.896,7.836,31.896,8.568z M30.149,8.568c0-1.056-0.237-1.893-0.711-2.511
		c-0.475-0.618-1.119-0.927-1.936-0.927c-0.815,0-1.461,0.309-1.935,0.927c-0.475,0.618-0.711,1.455-0.711,2.511
		c0,1.056,0.236,1.893,0.711,2.511c0.474,0.618,1.119,0.927,1.935,0.927c0.816,0,1.461-0.309,1.936-0.927
		C29.912,10.461,30.149,9.624,30.149,8.568z"/>
	<path d="M35.819,3.888h3.546v1.404h-3.546v4.319c0,0.469,0.036,0.855,0.108,1.162c0.071,0.306,0.18,0.546,0.324,0.72
		c0.144,0.174,0.323,0.297,0.539,0.368c0.217,0.072,0.469,0.109,0.757,0.109c0.504,0,0.908-0.058,1.215-0.172
		c0.306-0.113,0.519-0.195,0.639-0.242l0.324,1.385c-0.168,0.085-0.462,0.189-0.882,0.315c-0.421,0.126-0.9,0.189-1.44,0.189
		c-0.636,0-1.161-0.081-1.575-0.243s-0.747-0.405-0.999-0.729c-0.252-0.324-0.429-0.723-0.53-1.197
		c-0.103-0.475-0.153-1.023-0.153-1.647V1.278l1.674-0.288V3.888z"/>
	<path d="M44.946,3.69c0.144,0,0.309,0.009,0.494,0.027c0.187,0.018,0.369,0.042,0.55,0.072c0.18,0.03,0.345,0.06,0.494,0.09
		c0.15,0.03,0.262,0.057,0.333,0.081L46.53,5.418c-0.133-0.048-0.352-0.105-0.657-0.171c-0.307-0.066-0.699-0.099-1.18-0.099
		c-0.312,0-0.62,0.033-0.927,0.099c-0.306,0.066-0.507,0.111-0.603,0.135v7.866H41.49V4.284c0.396-0.144,0.888-0.279,1.476-0.405
		S44.214,3.69,44.946,3.69z"/>
	<path d="M51.461,3.654c0.672,0,1.239,0.087,1.701,0.261c0.462,0.174,0.834,0.42,1.116,0.738c0.281,0.318,0.482,0.696,0.603,1.134
		s0.181,0.921,0.181,1.449v5.85c-0.145,0.024-0.346,0.057-0.604,0.1c-0.258,0.041-0.549,0.08-0.873,0.117
		c-0.324,0.035-0.675,0.068-1.053,0.098c-0.378,0.03-0.753,0.046-1.125,0.046c-0.528,0-1.015-0.054-1.458-0.162
		c-0.444-0.108-0.828-0.279-1.152-0.513c-0.324-0.234-0.576-0.543-0.756-0.928c-0.18-0.384-0.27-0.846-0.27-1.386
		c0-0.516,0.104-0.96,0.314-1.332c0.21-0.372,0.495-0.672,0.855-0.9c0.359-0.228,0.779-0.396,1.26-0.504
		c0.479-0.108,0.983-0.162,1.512-0.162c0.168,0,0.342,0.009,0.522,0.027c0.18,0.018,0.351,0.042,0.513,0.072
		s0.303,0.057,0.423,0.081s0.204,0.042,0.252,0.054V7.326c0-0.276-0.03-0.549-0.09-0.819c-0.061-0.27-0.168-0.51-0.324-0.72
		S52.64,5.409,52.37,5.283c-0.271-0.126-0.621-0.189-1.053-0.189c-0.553,0-1.035,0.039-1.449,0.117
		c-0.414,0.078-0.724,0.159-0.927,0.243l-0.198-1.386c0.216-0.096,0.576-0.189,1.08-0.279S50.873,3.654,51.461,3.654z
		 M51.605,12.042c0.396,0,0.747-0.009,1.053-0.026c0.306-0.019,0.561-0.051,0.765-0.1v-2.79c-0.12-0.06-0.314-0.111-0.585-0.153
		c-0.27-0.042-0.597-0.063-0.98-0.063c-0.252,0-0.52,0.018-0.802,0.054C50.774,9,50.516,9.075,50.282,9.189
		c-0.234,0.114-0.43,0.27-0.585,0.468c-0.156,0.198-0.234,0.459-0.234,0.782c0,0.601,0.192,1.018,0.576,1.252
		C50.423,11.925,50.945,12.042,51.605,12.042z"/>
</g>
</svg>
