<?xml version="1.0" encoding="utf-8"?>
<!-- Generator: Adobe Illustrator 17.1.0, SVG Export Plug-In . SVG Version: 6.00 Build 0)  -->
<!DOCTYPE svg PUBLIC "-//W3C//DTD SVG 1.1//EN" "http://www.w3.org/Graphics/SVG/1.1/DTD/svg11.dtd">
<svg version="1.1" id="Layer_1" xmlns="http://www.w3.org/2000/svg" xmlns:xlink="http://www.w3.org/1999/xlink" x="0px" y="0px"
	 viewBox="0 0 30 30" enable-background="new 0 0 30 30" xml:space="preserve">
<path d="M15,30C6.7,30,0,23.3,0,15S6.7,0,15,0s15,6.7,15,15S23.3,30,15,30z M24.7,14.1L23,12.3l-7.1-7.1C15.7,5,15.4,4.9,15,4.9
	c-0.3,0-0.6,0.1-0.9,0.4l-1.8,1.8C12.1,7.3,12,7.6,12,7.9s0.1,0.6,0.4,0.9l3.7,3.7H6.2c-0.7,0-1.2,0.6-1.2,1.2v2.5
	c0,0.7,0.6,1.2,1.2,1.2h9.8l-3.7,3.7c-0.2,0.2-0.4,0.5-0.4,0.9s0.1,0.6,0.4,0.9l1.8,1.8c0.2,0.2,0.5,0.4,0.9,0.4
	c0.3,0,0.6-0.1,0.9-0.4l7.1-7.1l1.8-1.8c0.2-0.2,0.4-0.5,0.4-0.9S25,14.4,24.7,14.1z"/>
</svg>
