<?xml version="1.0" encoding="utf-8"?>
<!-- Generator: Adobe Illustrator 17.1.0, SVG Export Plug-In . SVG Version: 6.00 Build 0)  -->
<!DOCTYPE svg PUBLIC "-//W3C//DTD SVG 1.1//EN" "http://www.w3.org/Graphics/SVG/1.1/DTD/svg11.dtd">
<svg version="1.1" id="Layer_1" xmlns="http://www.w3.org/2000/svg" xmlns:xlink="http://www.w3.org/1999/xlink" x="0px" y="0px"
	 viewBox="0 0 30 30" enable-background="new 0 0 30 30" xml:space="preserve">
<path d="M15,30C6.7,30,0,23.3,0,15S6.7,0,15,0s15,6.7,15,15S23.3,30,15,30z M25,13.8c0-0.7-0.6-1.2-1.2-1.2h-9.8l3.7-3.7
	C17.9,8.6,18,8.3,18,7.9s-0.1-0.6-0.4-0.9l-1.8-1.8C15.6,5,15.3,4.9,15,4.9c-0.3,0-0.6,0.1-0.9,0.4L7,12.3l-1.8,1.8
	C5,14.4,4.9,14.7,4.9,15s0.1,0.6,0.4,0.9L7,17.7l7.1,7.1c0.2,0.2,0.5,0.4,0.9,0.4c0.3,0,0.6-0.1,0.9-0.4l1.8-1.8
	c0.2-0.2,0.4-0.5,0.4-0.9s-0.1-0.6-0.4-0.9l-3.7-3.7h9.8c0.7,0,1.2-0.6,1.2-1.2V13.8z"/>
</svg>
