<?xml version="1.0" encoding="utf-8"?>
<!-- Generator: Adobe Illustrator 17.1.0, SVG Export Plug-In . SVG Version: 6.00 Build 0)  -->
<!DOCTYPE svg PUBLIC "-//W3C//DTD SVG 1.1//EN" "http://www.w3.org/Graphics/SVG/1.1/DTD/svg11.dtd">
<svg version="1.1" id="Layer_1" xmlns="http://www.w3.org/2000/svg" xmlns:xlink="http://www.w3.org/1999/xlink" x="0px" y="0px"
	 viewBox="0 0 60 60" enable-background="new 0 0 60 60" xml:space="preserve">
<g id="Note">
	<rect width="60" height="60"/>
	<path fill="#FFFFFF" d="M39.4,45.9H20.8c-1.1,0-2-0.9-2-2V20c0-1.1,0.9-2,2-2h12.7c0.9,0,2,0.5,2.6,1.1l4.1,4.1
		c0.6,0.6,1.1,1.8,1.1,2.6V44C41.3,45,40.4,45.9,39.4,45.9z M20.8,19.5c-0.3,0-0.5,0.2-0.5,0.5V44c0,0.3,0.2,0.5,0.5,0.5h18.6
		c0.3,0,0.5-0.2,0.5-0.5V25.9c0-0.5-0.3-1.3-0.7-1.6l-4.1-4.1c-0.4-0.4-1.1-0.7-1.6-0.7H20.8z"/>
	<g>
		<path fill="#FFFFFF" d="M24.6,18l0-1c0-0.9,0.7-1.6,1.6-1.6c0.9,0,1.6,0.6,1.6,1.5c0,0,0,7.2,0,8.2c0,0,0.1,1-0.6,1.1
			c-0.7,0.1-0.8-0.8-0.8-0.8l0-6.1c0-0.3-0.3-0.6-0.6-0.6c-0.3,0-0.6,0.3-0.6,0.6l0,5.9c0,0,0-0.1,0-0.1c0,0,0,0,0,0
			c0,1,0.8,2,1.9,2c1,0,1.9-0.7,1.9-1.8c0,0,0,0,0,0c0-0.7,0-8.4,0-8.4c-0.1-1.4-1.3-2.6-2.7-2.6c-1.5,0-2.7,0.7-2.7,2.7h0l0,1H24.6
			z"/>
	</g>
</g>
</svg>
