<?xml version="1.0" encoding="utf-8"?>
<!-- Generator: Adobe Illustrator 17.0.2, SVG Export Plug-In . SVG Version: 6.00 Build 0)  -->
<!DOCTYPE svg PUBLIC "-//W3C//DTD SVG 1.1//EN" "http://www.w3.org/Graphics/SVG/1.1/DTD/svg11.dtd">
<svg version="1.1" id="Layer_1" xmlns="http://www.w3.org/2000/svg" xmlns:xlink="http://www.w3.org/1999/xlink" x="0px" y="0px"
	 width="70px" height="40px" viewBox="0 0 70 40" enable-background="new 0 0 70 40" xml:space="preserve">
<g>
	<rect fill="#8C8C8C" width="70" height="40"/>
	<g>
		<path fill="#FFFFFF" d="M13.461,12.966c0-0.44,0.381-0.78,0.801-0.78c0.439,0,0.8,0.34,0.8,0.78c0,0.439-0.36,0.8-0.8,0.8
			C13.842,13.766,13.461,13.405,13.461,12.966z M13.741,24.948v-9.662h1.04v9.662H13.741z"/>
		<path fill="#FFFFFF" d="M24.542,24.948v-6.542c0-1.86-0.94-2.42-2.341-2.42c-1.24,0-2.521,0.78-3.141,1.66v7.302h-1.04v-9.662
			h1.04v1.46c0.7-0.84,2.081-1.7,3.481-1.7c1.96,0,3.04,0.96,3.04,3.141v6.762H24.542z"/>
		<path fill="#FFFFFF" d="M31.421,24.948l-4.081-9.662h1.16l3.521,8.441l3.48-8.441h1.181l-4.081,9.662H31.421z"/>
		<path fill="#FFFFFF" d="M37.881,20.107c0-2.821,1.82-5.062,4.641-5.062c2.86,0,4.661,2.24,4.661,5.062
			c0,2.82-1.801,5.081-4.661,5.081C39.701,25.188,37.881,22.928,37.881,20.107z M46.062,20.107c0-2.141-1.261-4.121-3.541-4.121
			c-2.24,0-3.521,1.98-3.521,4.121c0,2.16,1.28,4.141,3.521,4.141C44.802,24.248,46.062,22.268,46.062,20.107z"/>
		<path fill="#FFFFFF" d="M50.061,23.088v-6.882H48.46v-0.92h1.601v-2.641h1.061v2.641h1.96v0.92h-1.96v6.722
			c0,0.78,0.32,1.32,1,1.32c0.46,0,0.86-0.221,1.08-0.46l0.4,0.8c-0.38,0.36-0.841,0.601-1.641,0.601
			C50.681,25.188,50.061,24.408,50.061,23.088z"/>
		<path fill="#FFFFFF" d="M55.36,24.948v-9.662h1.04v1.66c0.82-1.08,1.921-1.86,3.261-1.86v1.141c-0.18-0.04-0.319-0.04-0.52-0.04
			c-0.98,0-2.301,0.88-2.741,1.72v7.042H55.36z"/>
		<path fill="#FFFFFF" d="M67.842,24.948v-1.141c-0.86,0.94-1.94,1.381-3.281,1.381c-1.66,0-3.38-1.141-3.38-3.221
			c0-2.101,1.7-3.201,3.38-3.201c1.341,0,2.441,0.44,3.281,1.38v-1.96c0-1.44-1.16-2.221-2.601-2.221c-1.2,0-2.141,0.42-3.021,1.421
			l-0.58-0.721c1-1.08,2.12-1.62,3.721-1.62c1.96,0,3.521,0.94,3.521,3.101v6.802H67.842z M67.842,23.048v-2.121
			c-0.681-0.88-1.761-1.34-2.921-1.34c-1.601,0-2.641,1.021-2.641,2.4c0,1.36,1.04,2.381,2.641,2.381
			C66.081,24.368,67.161,23.928,67.842,23.048z"/>
	</g>
</g>
</svg>
