<?xml version="1.0" encoding="utf-8"?>
<!-- Generator: Adobe Illustrator 17.0.2, SVG Export Plug-In . SVG Version: 6.00 Build 0)  -->
<!DOCTYPE svg PUBLIC "-//W3C//DTD SVG 1.1//EN" "http://www.w3.org/Graphics/SVG/1.1/DTD/svg11.dtd">
<svg version="1.1" id="Layer_1" xmlns="http://www.w3.org/2000/svg" xmlns:xlink="http://www.w3.org/1999/xlink" x="0px" y="0px"
	 width="40px" height="40px" viewBox="0 0 40 40" enable-background="new 0 0 40 40" xml:space="preserve">
<g>
	<g>
		<rect fill="#8C8C8C" width="40" height="40"/>
	</g>
	<g>
		<path fill="#F2F2F2" d="M22.487,13.617c0-1.016-0.824-1.84-1.84-1.84c-1.016,0-1.84,0.824-1.84,1.84c0,1.016,0.824,1.84,1.84,1.84
			C21.663,15.457,22.487,14.633,22.487,13.617"/>
		<path fill="#F2F2F2" d="M22.28,16.37l-1.755,8.289c-0.032,0.123-0.055,0.239-0.07,0.346c-0.016,0.108-0.023,0.2-0.023,0.277
			c0,0.308,0.177,0.462,0.531,0.462c0.154,0,0.323-0.035,0.508-0.104c0.185-0.07,0.355-0.142,0.508-0.22l-0.37,1.756
			c-0.308,0.184-0.646,0.331-1.015,0.438c-0.37,0.107-0.755,0.162-1.155,0.162c-0.616,0-1.124-0.147-1.524-0.439
			c-0.401-0.293-0.6-0.777-0.6-1.455c0-0.354,0.053-0.77,0.162-1.247l1.293-6.095H17.27l0.462-2.171H22.28z"/>
	</g>
</g>
</svg>
