<?xml version="1.0" encoding="utf-8"?>
<!-- Generator: Adobe Illustrator 17.1.0, SVG Export Plug-In . SVG Version: 6.00 Build 0)  -->
<!DOCTYPE svg PUBLIC "-//W3C//DTD SVG 1.1//EN" "http://www.w3.org/Graphics/SVG/1.1/DTD/svg11.dtd">
<svg version="1.1" id="Layer_1" xmlns="http://www.w3.org/2000/svg" xmlns:xlink="http://www.w3.org/1999/xlink" x="0px" y="0px"
	 viewBox="0 0 20 12.9" enable-background="new 0 0 20 12.9" xml:space="preserve">
<g>
	<path d="M19.8,7.2c-2.1,3.4-5.8,5.7-9.8,5.7s-7.7-2.3-9.8-5.7C0.1,7,0,6.7,0,6.4c0-0.3,0.1-0.5,0.2-0.8C2.3,2.3,6,0,10,0
		s7.7,2.3,9.8,5.7C19.9,5.9,20,6.1,20,6.4C20,6.7,19.9,7,19.8,7.2z M14.3,2.5C14.8,3.2,15,4.1,15,5c0,2.8-2.2,5-5,5S5,7.8,5,5
		c0-0.9,0.2-1.8,0.7-2.5C3.9,3.4,2.5,4.8,1.4,6.4c1.9,2.9,5,5,8.6,5s6.7-2.1,8.6-5C17.5,4.8,16.1,3.4,14.3,2.5z M10,1.6
		C8.1,1.6,6.6,3.1,6.6,5c0,0.3,0.2,0.5,0.5,0.5c0.3,0,0.5-0.2,0.5-0.5c0-1.3,1-2.3,2.3-2.3c0.3,0,0.5-0.2,0.5-0.5S10.3,1.6,10,1.6z"
		/>
</g>
</svg>
