<?xml version="1.0" encoding="utf-8"?>
<!-- Generator: Adobe Illustrator 17.0.2, SVG Export Plug-In . SVG Version: 6.00 Build 0)  -->
<!DOCTYPE svg PUBLIC "-//W3C//DTD SVG 1.1//EN" "http://www.w3.org/Graphics/SVG/1.1/DTD/svg11.dtd">
<svg version="1.1" id="Layer_1" xmlns="http://www.w3.org/2000/svg" xmlns:xlink="http://www.w3.org/1999/xlink" x="0px" y="0px"
	 width="15.996px" height="10.283px" viewBox="0 0 15.996 10.283" enable-background="new 0 0 15.996 10.283" xml:space="preserve">
<g>
	<path d="M15.817,5.757c-1.643,2.705-4.65,4.526-7.819,4.526S1.82,8.453,0.179,5.757C0.071,5.57,0,5.364,0,5.142
		c0-0.224,0.071-0.429,0.179-0.616C1.82,1.83,4.829,0,7.998,0s6.177,1.83,7.819,4.525c0.107,0.188,0.179,0.393,0.179,0.616
		C15.996,5.364,15.925,5.57,15.817,5.757z M11.452,1.99c0.357,0.607,0.545,1.304,0.545,2.009c0,2.204-1.795,3.999-3.999,3.999
		c-2.205,0-3.999-1.795-3.999-3.999c0-0.705,0.188-1.401,0.544-2.009C3.15,2.704,1.99,3.829,1.143,5.142
		c1.526,2.356,3.99,3.999,6.855,3.999s5.329-1.643,6.855-3.999C14.005,3.829,12.845,2.704,11.452,1.99z M7.998,1.285
		c-1.491,0-2.714,1.223-2.714,2.714c0,0.231,0.196,0.429,0.429,0.429c0.231,0,0.429-0.197,0.429-0.429
		c0-1.018,0.839-1.856,1.856-1.856c0.231,0,0.429-0.197,0.429-0.429C8.427,1.481,8.229,1.285,7.998,1.285z"/>
</g>
</svg>
