<?xml version="1.0" encoding="utf-8"?>
<!-- Generator: Adobe Illustrator 17.0.2, SVG Export Plug-In . SVG Version: 6.00 Build 0)  -->
<!DOCTYPE svg PUBLIC "-//W3C//DTD SVG 1.1//EN" "http://www.w3.org/Graphics/SVG/1.1/DTD/svg11.dtd">
<svg version="1.1" id="Layer_1" xmlns="http://www.w3.org/2000/svg" xmlns:xlink="http://www.w3.org/1999/xlink" x="0px" y="0px"
	 width="15.643px" height="9.859px" viewBox="0 0 15.643 9.859" enable-background="new 0 0 15.643 9.859" xml:space="preserve">
<g>
	<g>
		<path d="M15.271,8.726l-0.753,0.753c-0.241,0.24-0.572,0.381-0.914,0.381s-0.673-0.141-0.903-0.381l-4.88-4.87l-4.88,4.87
			c-0.23,0.24-0.562,0.381-0.903,0.381S1.365,9.719,1.135,9.479L0.382,8.726C0.141,8.494,0,8.163,0,7.821
			C0,7.48,0.141,7.148,0.382,6.908l6.536-6.536C7.148,0.141,7.479,0,7.821,0s0.673,0.141,0.914,0.372l6.525,6.536
			c0.241,0.24,0.382,0.572,0.382,0.913C15.643,8.163,15.502,8.494,15.271,8.726z"/>
	</g>
</g>
</svg>
