<?xml version="1.0" encoding="utf-8"?>
<!-- Generator: Adobe Illustrator 17.0.2, SVG Export Plug-In . SVG Version: 6.00 Build 0)  -->
<!DOCTYPE svg PUBLIC "-//W3C//DTD SVG 1.1//EN" "http://www.w3.org/Graphics/SVG/1.1/DTD/svg11.dtd">
<svg version="1.1" id="Layer_1" xmlns="http://www.w3.org/2000/svg" xmlns:xlink="http://www.w3.org/1999/xlink" x="0px" y="0px"
	 width="14.854px" height="14.166px" viewBox="0 0 14.854 14.166" enable-background="new 0 0 14.854 14.166" xml:space="preserve">
<g>
	<path d="M14.622,5.918l-3.24,3.16l0.768,4.464c0.009,0.062,0.009,0.115,0.009,0.178c0,0.241-0.107,0.446-0.366,0.446
		c-0.125,0-0.25-0.044-0.357-0.106l-4.008-2.106L3.419,14.06c-0.116,0.062-0.232,0.106-0.357,0.106
		c-0.259,0-0.375-0.214-0.375-0.446c0-0.062,0.009-0.115,0.018-0.178l0.768-4.464l-3.249-3.16C0.116,5.803,0,5.65,0,5.49
		c0-0.268,0.277-0.375,0.5-0.411l4.481-0.651l2.008-4.062C7.07,0.196,7.222,0,7.427,0s0.357,0.196,0.438,0.366l2.008,4.062
		l4.481,0.651c0.214,0.036,0.5,0.144,0.5,0.411C14.854,5.65,14.737,5.803,14.622,5.918z M12.881,6.025L9.114,5.472L7.427,2.062
		L5.74,5.472L1.973,6.025l2.731,2.651l-0.651,3.758l3.374-1.776l3.365,1.776l-0.643-3.758L12.881,6.025z"/>
</g>
</svg>
