<?xml version="1.0" encoding="utf-8"?>
<!-- Generator: Adobe Illustrator 17.0.2, SVG Export Plug-In . SVG Version: 6.00 Build 0)  -->
<!DOCTYPE svg PUBLIC "-//W3C//DTD SVG 1.1//EN" "http://www.w3.org/Graphics/SVG/1.1/DTD/svg11.dtd">
<svg version="1.1" id="Layer_1" xmlns="http://www.w3.org/2000/svg" xmlns:xlink="http://www.w3.org/1999/xlink" x="0px" y="0px"
	 width="15.643px" height="9.859px" viewBox="0 0 15.643 9.859" enable-background="new 0 0 15.643 9.859" xml:space="preserve">
<g>
	<g>
		<path d="M0.371,1.134l0.753-0.753C1.365,0.141,1.696,0,2.038,0s0.673,0.141,0.903,0.381l4.88,4.87l4.88-4.87
			C12.931,0.141,13.263,0,13.604,0c0.341,0,0.673,0.141,0.903,0.381l0.753,0.753c0.241,0.232,0.382,0.563,0.382,0.905
			c0,0.341-0.141,0.673-0.382,0.913L8.724,9.488C8.494,9.719,8.163,9.86,7.821,9.86c-0.342,0-0.673-0.141-0.914-0.372L0.382,2.952
			C0.141,2.712,0,2.38,0,2.039C-0.001,1.697,0.14,1.366,0.371,1.134z"/>
	</g>
</g>
</svg>
