<?xml version="1.0" encoding="utf-8"?>
<!-- Generator: Adobe Illustrator 17.0.2, SVG Export Plug-In . SVG Version: 6.00 Build 0)  -->
<!DOCTYPE svg PUBLIC "-//W3C//DTD SVG 1.1//EN" "http://www.w3.org/Graphics/SVG/1.1/DTD/svg11.dtd">
<svg version="1.1" id="Layer_1" xmlns="http://www.w3.org/2000/svg" xmlns:xlink="http://www.w3.org/1999/xlink" x="0px" y="0px"
	 width="15.996px" height="12.568px" viewBox="0 0 15.996 12.568" enable-background="new 0 0 15.996 12.568" xml:space="preserve">
<g>
	<path d="M2.285,1.999c0,0.152-0.134,0.286-0.286,0.286H0.285C0.134,2.285,0,2.151,0,1.999V0.285C0,0.134,0.134,0,0.285,0h1.714
		c0.152,0,0.286,0.134,0.286,0.285V1.999z M2.285,5.427c0,0.152-0.134,0.286-0.286,0.286H0.285C0.134,5.713,0,5.579,0,5.427V3.713
		c0-0.151,0.134-0.285,0.285-0.285h1.714c0.152,0,0.286,0.134,0.286,0.285V5.427z M2.285,8.854c0,0.152-0.134,0.286-0.286,0.286
		H0.285C0.134,9.141,0,9.007,0,8.854V7.141c0-0.151,0.134-0.285,0.285-0.285h1.714c0.152,0,0.286,0.134,0.286,0.285V8.854z
		 M2.285,12.282c0,0.152-0.134,0.286-0.286,0.286H0.285C0.134,12.568,0,12.435,0,12.282v-1.714c0-0.151,0.134-0.285,0.285-0.285
		h1.714c0.152,0,0.286,0.134,0.286,0.285V12.282z M15.996,1.999c0,0.152-0.134,0.286-0.286,0.286H3.713
		c-0.151,0-0.285-0.134-0.285-0.286V0.285C3.428,0.134,3.562,0,3.713,0H15.71c0.152,0,0.286,0.134,0.286,0.285V1.999z M15.996,5.427
		c0,0.152-0.134,0.286-0.286,0.286H3.713c-0.151,0-0.285-0.134-0.285-0.286V3.713c0-0.151,0.134-0.285,0.285-0.285H15.71
		c0.152,0,0.286,0.134,0.286,0.285V5.427z M15.996,8.854c0,0.152-0.134,0.286-0.286,0.286H3.713c-0.151,0-0.285-0.134-0.285-0.286
		V7.141c0-0.151,0.134-0.285,0.285-0.285H15.71c0.152,0,0.286,0.134,0.286,0.285V8.854z M15.996,12.282
		c0,0.152-0.134,0.286-0.286,0.286H3.713c-0.151,0-0.285-0.134-0.285-0.286v-1.714c0-0.151,0.134-0.285,0.285-0.285H15.71
		c0.152,0,0.286,0.134,0.286,0.285V12.282z"/>
</g>
</svg>
