<?xml version="1.0" encoding="utf-8"?>
<!-- Generator: Adobe Illustrator 17.1.0, SVG Export Plug-In . SVG Version: 6.00 Build 0)  -->
<!DOCTYPE svg PUBLIC "-//W3C//DTD SVG 1.1//EN" "http://www.w3.org/Graphics/SVG/1.1/DTD/svg11.dtd">
<svg version="1.1" id="Layer_1" xmlns="http://www.w3.org/2000/svg" xmlns:xlink="http://www.w3.org/1999/xlink" x="0px" y="0px"
	 viewBox="0 0 14.137 14.137" enable-background="new 0 0 14.137 14.137" xml:space="preserve">
<g>
	<g>
		<path d="M0,6.104c0-0.532,0.432-0.964,0.964-0.964h4.177V0.964C5.141,0.432,5.572,0,6.104,0h1.928
			c0.532,0,0.964,0.432,0.964,0.964v4.177h4.177c0.532,0,0.964,0.432,0.964,0.964v1.928c0,0.533-0.432,0.964-0.964,0.964H8.996
			v4.176c0,0.533-0.432,0.965-0.964,0.965H6.104c-0.532,0-0.964-0.432-0.964-0.965V8.997H0.964C0.432,8.997,0,8.565,0,8.032V6.104z"
			/>
	</g>
</g>
</svg>
