<?xml version="1.0" encoding="utf-8"?>
<!-- Generator: Adobe Illustrator 17.0.2, SVG Export Plug-In . SVG Version: 6.00 Build 0)  -->
<!DOCTYPE svg PUBLIC "-//W3C//DTD SVG 1.1//EN" "http://www.w3.org/Graphics/SVG/1.1/DTD/svg11.dtd">
<svg version="1.1" id="Layer_1" xmlns="http://www.w3.org/2000/svg" xmlns:xlink="http://www.w3.org/1999/xlink" x="0px" y="0px"
	 width="19.277px" height="17.681px" viewBox="0 0 19.277 17.681" enable-background="new 0 0 19.277 17.681" xml:space="preserve">
<g>
	<path d="M12.852,9.78c0,0.13-0.101,0.281-0.23,0.301l-1.557,0.241c-0.08,0.261-0.19,0.512-0.321,0.763
		c0.281,0.401,0.582,0.773,0.903,1.155c0.04,0.06,0.07,0.12,0.07,0.2c0,0.07-0.02,0.141-0.07,0.191
		c-0.2,0.271-1.325,1.495-1.616,1.495c-0.08,0-0.15-0.029-0.211-0.07l-1.154-0.903c-0.251,0.131-0.502,0.231-0.773,0.312
		c-0.05,0.512-0.101,1.064-0.23,1.556C7.62,15.161,7.5,15.261,7.359,15.261H5.492c-0.141,0-0.281-0.11-0.302-0.251l-0.23-1.536
		c-0.261-0.08-0.512-0.19-0.753-0.312l-1.185,0.894c-0.051,0.051-0.131,0.07-0.201,0.07c-0.08,0-0.15-0.029-0.211-0.08
		c-0.261-0.241-1.445-1.315-1.445-1.606c0-0.07,0.029-0.13,0.07-0.19c0.291-0.382,0.592-0.753,0.883-1.145
		c-0.141-0.271-0.261-0.542-0.352-0.823l-1.525-0.241C0.101,10.02,0,9.89,0,9.75V7.892C0,7.761,0.101,7.61,0.23,7.59L1.787,7.35
		c0.08-0.261,0.19-0.512,0.321-0.763C1.827,6.185,1.526,5.813,1.205,5.432c-0.04-0.06-0.07-0.13-0.07-0.201s0.02-0.141,0.07-0.201
		c0.2-0.271,1.325-1.486,1.616-1.486c0.08,0,0.15,0.03,0.211,0.07l1.154,0.903c0.251-0.13,0.502-0.231,0.773-0.321
		c0.05-0.502,0.101-1.054,0.23-1.546C5.231,2.51,5.352,2.41,5.492,2.41h1.867c0.141,0,0.281,0.11,0.302,0.251l0.23,1.536
		c0.261,0.081,0.512,0.191,0.753,0.312l1.185-0.894c0.061-0.05,0.131-0.07,0.201-0.07c0.08,0,0.15,0.03,0.211,0.08
		c0.261,0.241,1.445,1.325,1.445,1.606c0,0.07-0.029,0.13-0.07,0.191c-0.291,0.392-0.592,0.753-0.873,1.145
		c0.131,0.271,0.251,0.542,0.342,0.823l1.525,0.231c0.141,0.03,0.241,0.161,0.241,0.301V9.78z M6.426,6.265
		c-1.416,0-2.57,1.155-2.57,2.57c0,1.416,1.154,2.57,2.57,2.57s2.57-1.154,2.57-2.57C8.996,7.42,7.842,6.265,6.426,6.265z
		 M19.277,4.397c0,0.151-1.295,0.292-1.496,0.312C17.701,4.9,17.601,5.07,17.48,5.231c0.09,0.201,0.512,1.205,0.512,1.386
		c0,0.03-0.01,0.05-0.04,0.07C17.831,6.757,16.757,7.4,16.707,7.4c-0.131,0-0.884-1.004-0.984-1.155c-0.1,0.01-0.2,0.02-0.301,0.02
		s-0.201-0.01-0.301-0.02C15.021,6.396,14.268,7.4,14.137,7.4c-0.05,0-1.124-0.643-1.245-0.713c-0.03-0.021-0.04-0.05-0.04-0.07
		c0-0.171,0.422-1.185,0.512-1.386c-0.12-0.161-0.221-0.331-0.301-0.522c-0.201-0.02-1.496-0.161-1.496-0.312V2.992
		c0-0.151,1.295-0.292,1.496-0.312c0.08-0.181,0.181-0.361,0.301-0.522c-0.09-0.201-0.512-1.215-0.512-1.386
		c0-0.02,0.01-0.05,0.04-0.07C13.013,0.643,14.087,0,14.137,0c0.131,0,0.884,0.994,0.984,1.145c0.1-0.01,0.2-0.02,0.301-0.02
		s0.201,0.01,0.301,0.02c0.281-0.392,0.583-0.783,0.924-1.125L16.707,0c0.05,0,1.124,0.632,1.245,0.703
		c0.03,0.021,0.04,0.05,0.04,0.07c0,0.181-0.422,1.185-0.512,1.386c0.12,0.161,0.221,0.341,0.301,0.522
		c0.201,0.02,1.496,0.161,1.496,0.312V4.397z M19.277,14.679c0,0.15-1.295,0.291-1.496,0.312c-0.08,0.19-0.181,0.361-0.301,0.521
		c0.09,0.201,0.512,1.205,0.512,1.386c0,0.03-0.01,0.05-0.04,0.07c-0.121,0.07-1.195,0.713-1.245,0.713
		c-0.131,0-0.884-1.004-0.984-1.154c-0.1,0.01-0.2,0.02-0.301,0.02s-0.201-0.01-0.301-0.02c-0.101,0.15-0.854,1.154-0.984,1.154
		c-0.05,0-1.124-0.643-1.245-0.713c-0.03-0.021-0.04-0.05-0.04-0.07c0-0.171,0.422-1.185,0.512-1.386
		c-0.12-0.16-0.221-0.331-0.301-0.521c-0.201-0.021-1.496-0.161-1.496-0.312v-1.405c0-0.151,1.295-0.292,1.496-0.312
		c0.08-0.181,0.181-0.361,0.301-0.522c-0.09-0.2-0.512-1.215-0.512-1.386c0-0.02,0.01-0.05,0.04-0.07
		c0.121-0.06,1.195-0.702,1.245-0.702c0.131,0,0.884,0.994,0.984,1.145c0.1-0.01,0.2-0.021,0.301-0.021s0.201,0.011,0.301,0.021
		c0.281-0.392,0.583-0.783,0.924-1.125l0.061-0.02c0.05,0,1.124,0.632,1.245,0.702c0.03,0.021,0.04,0.051,0.04,0.07
		c0,0.181-0.422,1.186-0.512,1.386c0.12,0.161,0.221,0.342,0.301,0.522c0.201,0.02,1.496,0.16,1.496,0.312V14.679z M15.422,2.41
		c-0.703,0-1.285,0.583-1.285,1.285c0,0.713,0.582,1.285,1.285,1.285c0.713,0,1.285-0.583,1.285-1.285S16.125,2.41,15.422,2.41z
		 M15.422,12.691c-0.703,0-1.285,0.583-1.285,1.285c0,0.713,0.582,1.285,1.285,1.285c0.713,0,1.285-0.582,1.285-1.285
		C16.707,13.274,16.125,12.691,15.422,12.691z"/>
</g>
</svg>
