<?xml version="1.0" encoding="utf-8"?>
<!-- Generator: Adobe Illustrator 17.0.2, SVG Export Plug-In . SVG Version: 6.00 Build 0)  -->
<!DOCTYPE svg PUBLIC "-//W3C//DTD SVG 1.1//EN" "http://www.w3.org/Graphics/SVG/1.1/DTD/svg11.dtd">
<svg version="1.1" id="Layer_1" xmlns="http://www.w3.org/2000/svg" xmlns:xlink="http://www.w3.org/1999/xlink" x="0px" y="0px"
	 width="13.574px" height="16.289px" viewBox="0 0 13.574 16.289" enable-background="new 0 0 13.574 16.289" xml:space="preserve">
<g>
	<g>
		<path d="M13.574,15.271c0,0.562-0.456,1.018-1.019,1.018H1.019C0.456,16.289,0,15.833,0,15.271V1.018C0,0.456,0.456,0,1.019,0
			h6.787c0.562,0,1.347,0.329,1.738,0.721l3.31,3.309c0.392,0.393,0.721,1.177,0.721,1.739V15.271z M12.217,14.932V6.787H7.806
			c-0.562,0-1.019-0.456-1.019-1.018V1.357h-5.43v13.574H12.217z M12.132,5.43c-0.063-0.18-0.159-0.36-0.233-0.435L8.579,1.676
			c-0.074-0.074-0.254-0.17-0.435-0.233V5.43H12.132z"/>
	</g>
</g>
</svg>
