<?xml version="1.0" encoding="utf-8"?>
<!-- Generator: Adobe Illustrator 17.1.0, SVG Export Plug-In . SVG Version: 6.00 Build 0)  -->
<!DOCTYPE svg PUBLIC "-//W3C//DTD SVG 1.1//EN" "http://www.w3.org/Graphics/SVG/1.1/DTD/svg11.dtd">
<svg version="1.1" id="Layer_1" xmlns="http://www.w3.org/2000/svg" xmlns:xlink="http://www.w3.org/1999/xlink" x="0px" y="0px"
	 viewBox="0 0 17.1 17.1" enable-background="new 0 0 17.1 17.1" xml:space="preserve">
<g>
	<g>
		<path d="M8.6,17.1C3.8,17.1,0,13.3,0,8.6S3.8,0,8.6,0s8.6,3.8,8.6,8.6S13.3,17.1,8.6,17.1z M8.8,2.9C7,2.9,5.6,3.6,4.7,5.2
			C4.6,5.4,4.6,5.6,4.7,5.7l1.5,1.1c0.1,0,0.1,0.1,0.2,0.1c0.1,0,0.2,0,0.3-0.1c0.5-0.7,0.7-0.9,1-1c0.2-0.1,0.6-0.3,1-0.3
			c0.7,0,1.4,0.5,1.4,0.9C10,7,9.7,7.3,9,7.6C8.2,7.9,7.1,8.9,7.1,9.9v0.4c0,0.2,0.2,0.4,0.4,0.4h2.1c0.2,0,0.4-0.2,0.4-0.4
			c0-0.3,0.3-0.8,0.8-1.1c0.8-0.5,2-1.1,2-2.8C12.8,4.4,10.7,2.9,8.8,2.9z M10,11.8c0-0.2-0.2-0.4-0.4-0.4H7.5
			c-0.2,0-0.4,0.2-0.4,0.4v2.1c0,0.2,0.2,0.4,0.4,0.4h2.1c0.2,0,0.4-0.2,0.4-0.4V11.8z"/>
	</g>
</g>
</svg>
