<?xml version="1.0" encoding="utf-8"?>
<!-- Generator: Adobe Illustrator 17.0.2, SVG Export Plug-In . SVG Version: 6.00 Build 0)  -->
<!DOCTYPE svg PUBLIC "-//W3C//DTD SVG 1.1//EN" "http://www.w3.org/Graphics/SVG/1.1/DTD/svg11.dtd">
<svg version="1.1" id="Layer_1" xmlns="http://www.w3.org/2000/svg" xmlns:xlink="http://www.w3.org/1999/xlink" x="0px" y="0px"
	 width="17.139px" height="15.996px" viewBox="0 0 17.139 15.996" enable-background="new 0 0 17.139 15.996" xml:space="preserve">
<g>
	<path d="M2.928,9.141H1.731C0.839,9.141,0,8.712,0,7.721c0-0.723-0.026-3.15,1.106-3.15c0.188,0,1.116,0.759,2.321,0.759
		c0.41,0,0.804-0.071,1.187-0.206C4.588,5.32,4.57,5.517,4.57,5.713c0,0.812,0.259,1.615,0.723,2.285
		C4.365,8.024,3.526,8.427,2.928,9.141z M3.428,4.57c-1.259,0-2.285-1.026-2.285-2.285S2.169,0,3.428,0s2.285,1.026,2.285,2.285
		S4.687,4.57,3.428,4.57z M12.47,15.996H4.669c-1.429,0-2.384-0.866-2.384-2.312c0-2.017,0.473-5.114,3.089-5.114
		c0.303,0,1.41,1.24,3.195,1.24s2.893-1.24,3.195-1.24c2.616,0,3.089,3.098,3.089,5.114C14.854,15.13,13.898,15.996,12.47,15.996z
		 M8.569,9.141c-1.893,0-3.428-1.535-3.428-3.428s1.535-3.428,3.428-3.428s3.428,1.535,3.428,3.428S10.462,9.141,8.569,9.141z
		 M13.711,4.57c-1.259,0-2.285-1.026-2.285-2.285S12.452,0,13.711,0s2.285,1.026,2.285,2.285S14.97,4.57,13.711,4.57z M15.407,9.141
		h-1.196c-0.599-0.714-1.438-1.116-2.365-1.143c0.464-0.67,0.723-1.473,0.723-2.285c0-0.196-0.018-0.393-0.045-0.59
		c0.384,0.135,0.777,0.206,1.188,0.206c1.205,0,2.134-0.759,2.321-0.759c1.133,0,1.106,2.428,1.106,3.15
		C17.139,8.712,16.3,9.141,15.407,9.141z"/>
</g>
</svg>
