<?xml version="1.0" encoding="utf-8"?>
<!-- Generator: Adobe Illustrator 17.0.2, SVG Export Plug-In . SVG Version: 6.00 Build 0)  -->
<!DOCTYPE svg PUBLIC "-//W3C//DTD SVG 1.1//EN" "http://www.w3.org/Graphics/SVG/1.1/DTD/svg11.dtd">
<svg version="1.1" id="Layer_1" xmlns="http://www.w3.org/2000/svg" xmlns:xlink="http://www.w3.org/1999/xlink" x="0px" y="0px"
	 width="52.97px" height="13.716px" viewBox="0 0 52.97 13.716" enable-background="new 0 0 52.97 13.716" xml:space="preserve">
<path d="M15.961,13.441h1.993c0.649-1.333,1.324-2.884,2.006-4.611s1.31-3.602,1.867-5.572h-2.394
	c-0.142,0.562-0.312,1.179-0.506,1.832c-0.197,0.66-0.405,1.325-0.619,1.977c-0.219,0.665-0.44,1.311-0.659,1.919
	c-0.218,0.607-0.43,1.17-0.629,1.673l-0.023,0.06l-0.023-0.06c-0.195-0.493-0.41-1.057-0.639-1.673
	c-0.227-0.615-0.452-1.261-0.668-1.919c-0.217-0.661-0.422-1.326-0.609-1.978c-0.188-0.649-0.354-1.266-0.497-1.831h-2.472
	c0.559,1.977,1.187,3.852,1.866,5.572C14.635,10.554,15.31,12.105,15.961,13.441z"/>
<polygon stroke="#808080" stroke-width="0.05" stroke-miterlimit="10" points="45.835,5.428 45.834,5.428 45.834,5.428 "/>
<g>
	<path d="M2.568,3.734C2.527,3.738,2.486,3.75,2.446,3.76C2.418,3.766,2.132,3.835,1.917,3.893C1.838,3.914,1.755,3.935,1.672,3.955
		C1.597,3.974,1.157,4.074,0.967,4.122C0.838,4.155,0.72,4.186,0.661,4.203C0.514,4.244,0.374,4.284,0.24,4.32v9.129h2.328
		L2.568,3.734z"/>
</g>
<path d="M1.394,0C1.011,0,0.679,0.125,0.408,0.372C0.137,0.618,0,0.961,0,1.394C0,1.813,0.137,2.15,0.408,2.396
	c0.271,0.247,0.603,0.372,0.986,0.372c0.37,0,0.695-0.125,0.967-0.372C2.631,2.15,2.768,1.812,2.768,1.394
	c0-0.432-0.137-0.775-0.408-1.021C2.088,0.125,1.763,0,1.394,0z"/>
<path d="M9.799,13.441h2.318V7.714c0-0.684-0.069-1.324-0.205-1.902c-0.136-0.574-0.371-1.071-0.7-1.478
	c-0.328-0.404-0.775-0.725-1.33-0.952c-0.556-0.226-1.257-0.34-2.084-0.34c-0.879,0-1.694,0.059-2.422,0.176
	C4.662,3.333,4.07,3.456,3.616,3.585v9.856h2.318V5.188l0.021-0.003C6.119,5.158,6.37,5.124,6.68,5.086
	c0.325-0.039,0.642-0.059,0.942-0.059c0.405,0,0.754,0.057,1.037,0.168C8.942,5.308,9.17,5.489,9.335,5.733
	c0.164,0.243,0.284,0.562,0.356,0.949C9.763,7.068,9.799,7.54,9.799,8.086V13.441z"/>
<path d="M31.468,6.148c-0.253-0.651-0.611-1.218-1.064-1.684c-0.452-0.465-1.005-0.828-1.644-1.081
	c-0.64-0.252-1.347-0.38-2.102-0.38s-1.458,0.128-2.091,0.38c-0.632,0.252-1.185,0.616-1.645,1.081
	c-0.46,0.465-0.822,1.032-1.075,1.684c-0.254,0.652-0.383,1.39-0.383,2.192c0,0.803,0.129,1.544,0.383,2.203
	c0.253,0.658,0.611,1.229,1.065,1.693c0.453,0.465,1.003,0.832,1.634,1.09c0.632,0.259,1.342,0.39,2.111,0.39
	c0.769,0,1.482-0.131,2.121-0.39c0.639-0.258,1.191-0.625,1.645-1.09s0.808-1.035,1.055-1.693s0.372-1.399,0.372-2.203
	C31.851,7.538,31.722,6.8,31.468,6.148z M28.622,10.802c-0.466,0.604-1.127,0.91-1.963,0.91s-1.497-0.307-1.964-0.91
	c-0.465-0.602-0.702-1.43-0.702-2.462c0-1.019,0.236-1.837,0.702-2.432c0.467-0.597,1.128-0.899,1.963-0.899
	c0.836,0,1.496,0.303,1.963,0.899c0.466,0.595,0.702,1.413,0.702,2.432C29.324,9.373,29.087,10.201,28.622,10.802z"/>
<path d="M52.965,6.646c0.009-0.449,0.017-0.874-0.091-1.264c-0.119-0.438-0.276-0.894-0.62-1.272
	c-0.329-0.363-0.735-0.63-1.242-0.815c-0.537-0.196-1.176-0.292-1.952-0.292c-0.655,0-1.276,0.053-1.846,0.156
	c-0.25,0.045-0.411,0.092-0.566,0.136c-0.183,0.053-0.371,0.107-0.703,0.16L45.916,3.46V3.448c-0.105-0.03-0.195-0.06-0.283-0.089
	c-0.103-0.035-0.199-0.067-0.304-0.091c-0.213-0.05-0.401-0.087-0.595-0.117c-0.218-0.034-0.421-0.06-0.62-0.079
	c-0.21-0.02-0.387-0.029-0.543-0.029c-0.822,0-1.558,0.074-2.249,0.225c-0.429,0.094-0.738,0.191-1.066,0.294
	c-0.187,0.059-0.379,0.119-0.599,0.18v7.388l-0.021,0.003c-0.614,0.1-1.341,0.302-1.689,0.398l-0.087,0.024
	c-0.335,0.091-0.727,0.138-1.165,0.138c-0.69,0-1.252-0.202-1.502-0.539c-0.204-0.275-0.548-0.873-0.548-1.776V5.031h3.92V2.998
	h-3.92V0.171L32.55,0.553v8.843c0,0.579,0.068,1.17,0.209,1.805c0.111,0.503,0.319,0.954,0.618,1.34
	c0.281,0.364,0.672,0.648,1.162,0.844c0.486,0.194,1.1,0.292,1.825,0.292c0.603,0,1.151-0.063,1.586-0.186
	c0.206-0.057,0.934-0.256,1.676-0.415l0.03-0.007v0.476h2.338V5.268c0-0.051,0.097-0.073,0.51-0.146l0.093-0.016
	c0.304-0.054,0.563-0.079,0.817-0.079c0.455,0,0.848,0.035,1.199,0.108c0.354,0.074,0.921,0.366,1.277,0.657
	c0.332-0.387,1.037-0.657,1.44-0.726c0.455-0.078,0.963-0.118,1.51-0.118c0.404,0,0.746,0.053,1.016,0.158
	c0.27,0.105,0.49,0.256,0.655,0.448c0.169,0.195,0.236,0.417,0.303,0.665c0.056,0.216,0.055,0.438,0.053,0.673
	c0,0.039,0,0.077,0,0.116v0.391h-0.051c-0.033-0.052-0.543-0.107-0.761-0.131l-0.091-0.01c-0.298-0.034-0.544-0.049-0.796-0.049
	c-0.557,0-1.079,0.054-1.598,0.166c-0.511,0.11-0.951,0.289-1.346,0.544C45.843,8.17,45.534,8.499,45.307,8.9
	c-0.224,0.396-0.337,0.893-0.337,1.475c0,0.606,0.101,1.123,0.301,1.535c0.199,0.411,0.479,0.75,0.834,1.008
	s0.789,0.447,1.293,0.563c0.507,0.117,1.071,0.176,1.677,0.176c0.883,0,1.593-0.05,2.372-0.166c0.147-0.022,0.297-0.044,0.441-0.064
	c0.485-0.069,1.034-0.148,1.074-0.2L52.96,7.029C52.96,6.899,52.963,6.771,52.965,6.646z M50.868,11.687
	c0,0.132-1.258,0.143-1.643,0.143c-0.596,0-1.06-0.107-1.419-0.327c-0.356-0.218-0.529-0.605-0.529-1.186
	c0-0.284,0.069-0.529,0.206-0.728c0.131-0.19,0.31-0.342,0.531-0.449c0.219-0.106,0.466-0.179,0.732-0.217
	c0.272-0.04,0.54-0.061,0.797-0.061c0.287,0,0.521,0.019,0.78,0.061l0.036,0.005c0.405,0.062,0.508,0.085,0.508,0.137V11.687z"/>
</svg>
