<?xml version="1.0" encoding="utf-8"?>
<!-- Generator: Adobe Illustrator 17.0.2, SVG Export Plug-In . SVG Version: 6.00 Build 0)  -->
<!DOCTYPE svg PUBLIC "-//W3C//DTD SVG 1.1//EN" "http://www.w3.org/Graphics/SVG/1.1/DTD/svg11.dtd">
<svg version="1.1" id="Layer_1" xmlns="http://www.w3.org/2000/svg" xmlns:xlink="http://www.w3.org/1999/xlink" x="0px" y="0px"
	 width="12.852px" height="15.422px" viewBox="0 0 12.852 15.422" enable-background="new 0 0 12.852 15.422" xml:space="preserve">
<g>
	<path d="M12.852,14.458c0,0.532-0.432,0.964-0.964,0.964H0.964C0.432,15.422,0,14.99,0,14.458V0.964C0,0.432,0.432,0,0.964,0h5.462
		v5.462c0,0.532,0.432,0.964,0.964,0.964h5.462V14.458z M10.281,9.317c0-0.181-0.141-0.321-0.321-0.321H2.892
		c-0.181,0-0.321,0.141-0.321,0.321V9.96c0,0.181,0.141,0.321,0.321,0.321H9.96c0.181,0,0.321-0.141,0.321-0.321V9.317z
		 M10.281,11.888c0-0.181-0.141-0.321-0.321-0.321H2.892c-0.181,0-0.321,0.141-0.321,0.321v0.643c0,0.181,0.141,0.321,0.321,0.321
		H9.96c0.181,0,0.321-0.141,0.321-0.321V11.888z M7.711,5.141V0.03c0.481,0.09,1.024,0.351,1.325,0.652l3.133,3.133
		c0.301,0.301,0.562,0.843,0.652,1.325H7.711z"/>
</g>
</svg>
