<?xml version="1.0" encoding="utf-8"?>
<!-- Generator: Adobe Illustrator 17.0.2, SVG Export Plug-In . SVG Version: 6.00 Build 0)  -->
<!DOCTYPE svg PUBLIC "-//W3C//DTD SVG 1.1//EN" "http://www.w3.org/Graphics/SVG/1.1/DTD/svg11.dtd">
<svg version="1.1" id="Layer_1" xmlns="http://www.w3.org/2000/svg" xmlns:xlink="http://www.w3.org/1999/xlink" x="0px" y="0px"
	 width="18px" height="14.715px" viewBox="0 0 18 14.715" enable-background="new 0 0 18 14.715" xml:space="preserve">
<g>
	<path d="M18,0v12.51c0,1.164-0.962,2.205-1.97,2.205H2.557C0.891,14.715,0,13.799,0,11.569V2.428h2.487V0H18z M2.487,3.765H1.267
		v7.804c0,1.139,0.258,1.684,0.587,1.684c0.4,0,0.634-0.545,0.634-1.684V3.765z M16.733,1.338H3.755v10.231
		c0,0.793-0.141,1.362-0.353,1.809H16.03c0.421,0,0.704-0.521,0.704-0.867V1.338z M8.754,6.794H5.773V5.62h2.981V6.794z
		 M8.754,8.633H5.773V7.458h2.981V8.633z M8.754,10.636H5.773V9.461h2.981V10.636z M5.691,3.295h9.216v0.867H5.691V3.295z
		 M9.927,5.599h4.999v5.029H9.927V5.599z"/>
</g>
</svg>
