<?xml version="1.0" encoding="utf-8"?>
<!-- Generator: Adobe Illustrator 17.0.2, SVG Export Plug-In . SVG Version: 6.00 Build 0)  -->
<!DOCTYPE svg PUBLIC "-//W3C//DTD SVG 1.1//EN" "http://www.w3.org/Graphics/SVG/1.1/DTD/svg11.dtd">
<svg version="1.1" id="Layer_1" xmlns="http://www.w3.org/2000/svg" xmlns:xlink="http://www.w3.org/1999/xlink" x="0px" y="0px"
	 width="15px" height="15px" viewBox="0 0 15 15" enable-background="new 0 0 15 15" xml:space="preserve">
<g>
	<path d="M6.818,6.818H0V0h6.818V6.818z M6.818,15H0V8.182h6.818V15z M5.455,5.455V1.364H1.364v4.091H5.455z M5.455,13.626v-4.08
		H1.364v4.08H5.455z M4.091,4.091H2.727V2.727h1.364V4.091z M4.091,12.273H2.727v-1.364h1.364V12.273z M15,6.818H8.182V0H15V6.818z
		 M15,12.273h-4.091v-1.364H9.545V15H8.182V8.182h4.091v1.364h1.364V8.182H15V12.273z M13.636,5.455V1.364H9.545v4.091H13.636z
		 M12.273,4.091h-1.364V2.727h1.364V4.091z M12.273,15h-1.364v-1.364h1.364V15z M15,15h-1.364v-1.364H15V15z"/>
</g>
</svg>
