<?xml version="1.0" encoding="utf-8"?>
<!-- Generator: Adobe Illustrator 17.0.2, SVG Export Plug-In . SVG Version: 6.00 Build 0)  -->
<!DOCTYPE svg PUBLIC "-//W3C//DTD SVG 1.1//EN" "http://www.w3.org/Graphics/SVG/1.1/DTD/svg11.dtd">
<svg version="1.1" id="Layer_1" xmlns="http://www.w3.org/2000/svg" xmlns:xlink="http://www.w3.org/1999/xlink" x="0px" y="0px"
	 width="16px" height="12.571px" viewBox="0 0 16 12.571" enable-background="new 0 0 16 12.571" xml:space="preserve">
<g>
	<path d="M4.571,2.571c0,0.473-0.384,0.857-0.857,0.857H0.857C0.384,3.429,0,3.045,0,2.571V0.857C0,0.384,0.384,0,0.857,0h2.857
		c0.473,0,0.857,0.384,0.857,0.857V2.571z M4.571,7.143C4.571,7.616,4.188,8,3.714,8H0.857C0.384,8,0,7.616,0,7.143V5.429
		c0-0.473,0.384-0.857,0.857-0.857h2.857c0.473,0,0.857,0.384,0.857,0.857V7.143z M4.571,11.714c0,0.473-0.384,0.857-0.857,0.857
		H0.857C0.384,12.571,0,12.188,0,11.714V10c0-0.473,0.384-0.857,0.857-0.857h2.857c0.473,0,0.857,0.384,0.857,0.857V11.714z
		 M16,2.571c0,0.473-0.384,0.857-0.857,0.857H6.571c-0.473,0-0.857-0.384-0.857-0.857V0.857C5.714,0.384,6.098,0,6.571,0h8.571
		C15.616,0,16,0.384,16,0.857V2.571z M16,7.143C16,7.616,15.616,8,15.143,8H6.571C6.098,8,5.714,7.616,5.714,7.143V5.429
		c0-0.473,0.384-0.857,0.857-0.857h8.571C15.616,4.571,16,4.955,16,5.429V7.143z M16,11.714c0,0.473-0.384,0.857-0.857,0.857H6.571
		c-0.473,0-0.857-0.384-0.857-0.857V10c0-0.473,0.384-0.857,0.857-0.857h8.571C15.616,9.143,16,9.527,16,10V11.714z"/>
</g>
</svg>
