<?xml version="1.0" encoding="utf-8"?>
<!-- Generator: Adobe Illustrator 17.0.2, SVG Export Plug-In . SVG Version: 6.00 Build 0)  -->
<!DOCTYPE svg PUBLIC "-//W3C//DTD SVG 1.1//EN" "http://www.w3.org/Graphics/SVG/1.1/DTD/svg11.dtd">
<svg version="1.1" id="Layer_1" xmlns="http://www.w3.org/2000/svg" xmlns:xlink="http://www.w3.org/1999/xlink" x="0px" y="0px"
	 width="14px" height="15.077px" viewBox="0 0 14 15.077" enable-background="new 0 0 14 15.077" xml:space="preserve">
<g>
	<path d="M12.923,12.923H9.154c0,1.186-0.968,2.154-2.154,2.154s-2.154-0.968-2.154-2.154H1.077C0.488,12.923,0,12.435,0,11.846
		c2.196-1.859,3.231-4.711,3.231-7.538c0-1.893,1.195-2.97,3.029-3.189C6.218,1.027,6.192,0.917,6.192,0.808
		C6.192,0.362,6.554,0,7,0s0.808,0.362,0.808,0.808c0,0.109-0.025,0.219-0.067,0.311c1.834,0.218,3.029,1.295,3.029,3.189
		c0,2.827,1.035,5.679,3.231,7.538C14,12.435,13.512,12.923,12.923,12.923z M7,14.134c-0.664,0-1.212-0.547-1.212-1.212
		c0-0.076-0.059-0.135-0.135-0.135s-0.135,0.059-0.135,0.135c0,0.816,0.664,1.481,1.481,1.481c0.076,0,0.135-0.059,0.135-0.135
		C7.135,14.193,7.076,14.134,7,14.134z"/>
</g>
</svg>
