<?xml version="1.0" encoding="utf-8"?>
<!-- Generator: Adobe Illustrator 17.0.2, SVG Export Plug-In . SVG Version: 6.00 Build 0)  -->
<!DOCTYPE svg PUBLIC "-//W3C//DTD SVG 1.1//EN" "http://www.w3.org/Graphics/SVG/1.1/DTD/svg11.dtd">
<svg version="1.1" id="Layer_1" xmlns="http://www.w3.org/2000/svg" xmlns:xlink="http://www.w3.org/1999/xlink" x="0px" y="0px"
	 width="15px" height="15px" viewBox="0 0 15 15" enable-background="new 0 0 15 15" xml:space="preserve">
<g>
	<path d="M8.464,0c1.857,0.238,3.411,1.066,4.66,2.483C14.375,3.899,15,5.56,15,7.464c0,2.072-0.732,3.846-2.197,5.322
		S9.559,15,7.464,15c-1.905,0-3.56-0.625-4.964-1.875C1.095,11.876,0.262,10.31,0,8.429h7.571c0.238,0,0.447-0.083,0.625-0.25
		c0.179-0.166,0.268-0.381,0.268-0.642V0z M6.571,0v6.571H0c0.214-1.737,0.934-3.22,2.161-4.446C3.387,0.9,4.857,0.191,6.571,0z"/>
</g>
</svg>
