<?xml version="1.0" encoding="utf-8"?>
<!-- Generator: Adobe Illustrator 17.0.2, SVG Export Plug-In . SVG Version: 6.00 Build 0)  -->
<!DOCTYPE svg PUBLIC "-//W3C//DTD SVG 1.1//EN" "http://www.w3.org/Graphics/SVG/1.1/DTD/svg11.dtd">
<svg version="1.1" id="Layer_1" xmlns="http://www.w3.org/2000/svg" xmlns:xlink="http://www.w3.org/1999/xlink" x="0px" y="0px"
	 width="12px" height="13px" viewBox="0 0 12 13" enable-background="new 0 0 12 13" xml:space="preserve">
<g>
	<path d="M6,13c-3.305,0-6-2.695-6-6c0-1.898,0.875-3.648,2.398-4.789c0.445-0.336,1.07-0.25,1.398,0.195
		c0.336,0.438,0.242,1.07-0.195,1.398C2.586,4.57,2,5.734,2,7c0,2.203,1.797,4,4,4s4-1.797,4-4c0-1.266-0.586-2.43-1.602-3.195
		C7.961,3.477,7.867,2.844,8.203,2.406c0.328-0.445,0.961-0.531,1.398-0.195C11.125,3.352,12,5.102,12,7C12,10.305,9.305,13,6,13z
		 M7,6c0,0.547-0.453,1-1,1S5,6.547,5,6V1c0-0.547,0.453-1,1-1s1,0.453,1,1V6z"/>
</g>
</svg>
