<?xml version="1.0" encoding="utf-8"?>
<!-- Generator: Adobe Illustrator 17.0.2, SVG Export Plug-In . SVG Version: 6.00 Build 0)  -->
<!DOCTYPE svg PUBLIC "-//W3C//DTD SVG 1.1//EN" "http://www.w3.org/Graphics/SVG/1.1/DTD/svg11.dtd">
<svg version="1.1" id="Layer_1" xmlns="http://www.w3.org/2000/svg" xmlns:xlink="http://www.w3.org/1999/xlink" x="0px" y="0px"
	 width="12.75px" height="16.15px" viewBox="0 0 12.75 16.15" enable-background="new 0 0 12.75 16.15" xml:space="preserve">
<path d="M10.2,5.95c-0.832,0-1.564,0.404-2.029,1.021l0.307-0.399L4.792,3.74C4.982,3.384,5.1,2.982,5.1,2.55
	C5.1,1.142,3.958,0,2.55,0S0,1.142,0,2.55c0,1.033,0.617,1.918,1.5,2.318v6.413C0.617,11.682,0,12.567,0,13.6
	c0,1.408,1.142,2.55,2.55,2.55S5.1,15.008,5.1,13.6c0-0.098-0.018-0.19-0.029-0.285l3.849-2.621c0.377,0.221,0.811,0.356,1.28,0.356
	c1.408,0,2.55-1.142,2.55-2.55S11.608,5.95,10.2,5.95z M2.55,11.05c-0.017,0-0.033,0.005-0.05,0.005v-5.96
	c0.017,0,0.033,0.005,0.05,0.005c0.613,0,1.168-0.225,1.608-0.586l3.71,2.851L8.071,7.1C7.806,7.502,7.65,7.982,7.65,8.5
	c0,0.566,0.191,1.084,0.503,1.507l-3.406,2.319C4.305,11.567,3.492,11.05,2.55,11.05z"/>
</svg>
