<?xml version="1.0" encoding="utf-8"?>
<!-- Generator: Adobe Illustrator 17.0.2, SVG Export Plug-In . SVG Version: 6.00 Build 0)  -->
<!DOCTYPE svg PUBLIC "-//W3C//DTD SVG 1.1//EN" "http://www.w3.org/Graphics/SVG/1.1/DTD/svg11.dtd">
<svg version="1.1" id="Layer_1" xmlns="http://www.w3.org/2000/svg" xmlns:xlink="http://www.w3.org/1999/xlink" x="0px" y="0px"
	 width="12.867px" height="12.867px" viewBox="0 0 12.867 12.867" enable-background="new 0 0 12.867 12.867" xml:space="preserve">
<g>
	<path d="M12.867,7.38c0,0.125-0.101,0.276-0.234,0.301l-1.55,0.235c-0.092,0.268-0.192,0.519-0.327,0.762
		c0.285,0.411,0.587,0.779,0.896,1.156c0.051,0.059,0.084,0.134,0.084,0.209c0,0.076-0.025,0.134-0.075,0.193
		c-0.201,0.268-1.332,1.5-1.617,1.5c-0.075,0-0.15-0.034-0.217-0.075L8.67,10.756c-0.242,0.125-0.502,0.234-0.762,0.318
		c-0.059,0.511-0.109,1.055-0.243,1.558c-0.033,0.134-0.15,0.234-0.302,0.234H5.504c-0.151,0-0.285-0.109-0.302-0.252l-0.234-1.541
		c-0.26-0.084-0.511-0.185-0.754-0.31l-1.182,0.896c-0.059,0.05-0.134,0.075-0.209,0.075s-0.151-0.034-0.21-0.092
		c-0.443-0.402-1.03-0.921-1.382-1.407c-0.042-0.059-0.059-0.125-0.059-0.193c0-0.075,0.025-0.134,0.067-0.192
		c0.284-0.385,0.595-0.754,0.879-1.148c-0.143-0.268-0.26-0.544-0.343-0.829L0.243,7.648C0.101,7.623,0,7.489,0,7.347v-1.86
		C0,5.361,0.101,5.21,0.227,5.186l1.558-0.235C1.868,4.683,1.977,4.432,2.111,4.18C1.826,3.778,1.524,3.401,1.215,3.024
		C1.164,2.965,1.131,2.898,1.131,2.823c0-0.076,0.033-0.134,0.075-0.193c0.201-0.276,1.332-1.5,1.617-1.5
		c0.075,0,0.15,0.034,0.218,0.084l1.156,0.896c0.242-0.125,0.502-0.234,0.762-0.318c0.059-0.511,0.109-1.055,0.243-1.558
		C5.235,0.101,5.353,0,5.504,0h1.859c0.151,0,0.285,0.109,0.302,0.251l0.234,1.541c0.26,0.084,0.511,0.185,0.754,0.31l1.189-0.896
		c0.051-0.05,0.126-0.075,0.201-0.075c0.075,0,0.151,0.034,0.21,0.084c0.443,0.41,1.03,0.93,1.382,1.424
		c0.042,0.05,0.059,0.117,0.059,0.185c0,0.075-0.025,0.134-0.067,0.192c-0.284,0.385-0.595,0.754-0.879,1.148
		c0.143,0.268,0.26,0.544,0.343,0.821l1.533,0.234c0.143,0.025,0.243,0.159,0.243,0.302V7.38z M6.434,4.289
		c-1.182,0-2.145,0.963-2.145,2.145s0.963,2.145,2.145,2.145s2.145-0.963,2.145-2.145S7.615,4.289,6.434,4.289z"/>
</g>
</svg>
