<?xml version="1.0" encoding="utf-8"?>
<!-- Generator: Adobe Illustrator 17.0.2, SVG Export Plug-In . SVG Version: 6.00 Build 0)  -->
<!DOCTYPE svg PUBLIC "-//W3C//DTD SVG 1.1//EN" "http://www.w3.org/Graphics/SVG/1.1/DTD/svg11.dtd">
<svg version="1.1" id="Layer_1" xmlns="http://www.w3.org/2000/svg" xmlns:xlink="http://www.w3.org/1999/xlink" x="0px" y="0px"
	 width="19.484px" height="21.521px" viewBox="0 0 19.484 21.521" enable-background="new 0 0 19.484 21.521" xml:space="preserve">
<g>
	<g>
		<path d="M0.29,11.818h2.184v9.702H0.29V11.818z"/>
		<path d="M7.066,11.706c1.446,0,2.557,0.255,3.332,0.764c0.775,0.509,1.162,1.342,1.162,2.499c0,1.166-0.392,2.009-1.176,2.526
			c-0.784,0.519-1.904,0.777-3.36,0.777H6.338v3.248H4.154v-9.562c0.476-0.093,0.98-0.158,1.512-0.195
			C6.198,11.725,6.664,11.706,7.066,11.706z M7.206,13.568c-0.159,0-0.315,0.005-0.469,0.014c-0.154,0.01-0.287,0.02-0.399,0.028
			v2.8h0.686c0.756,0,1.325-0.103,1.708-0.308c0.382-0.205,0.574-0.588,0.574-1.148c0-0.271-0.049-0.494-0.147-0.672
			c-0.098-0.177-0.238-0.319-0.42-0.427s-0.404-0.183-0.665-0.225S7.523,13.568,7.206,13.568z"/>
		<path d="M12.61,21.521v-9.702h6.552v1.834h-4.368v1.904h3.878v1.792h-3.878v2.338h4.69v1.834H12.61z"/>
	</g>
	<g>
		<path d="M4.27,0.83h1.26v6.93H4.27V4.69H1.26v3.07H0V0.83h1.26V3.6h3.01V0.83z"/>
		<path d="M8.08,1c0,0.227-0.074,0.406-0.22,0.54c-0.146,0.134-0.32,0.2-0.52,0.2c-0.207,0-0.383-0.066-0.53-0.2
			C6.663,1.406,6.59,1.227,6.59,1c0-0.233,0.073-0.417,0.22-0.55c0.146-0.133,0.323-0.2,0.53-0.2c0.2,0,0.374,0.066,0.52,0.2
			S8.08,0.767,8.08,1z M7.95,7.76H6.74V2.53h1.21V7.76z"/>
		<path d="M13.51,7.6c-0.24,0.074-0.542,0.14-0.905,0.2c-0.364,0.06-0.745,0.09-1.145,0.09c-0.414,0-0.784-0.063-1.11-0.19
			S9.745,7.392,9.515,7.155s-0.407-0.523-0.53-0.86C8.861,5.958,8.8,5.58,8.8,5.16c0-0.413,0.052-0.788,0.155-1.125
			C9.058,3.698,9.21,3.41,9.41,3.17c0.2-0.24,0.443-0.425,0.73-0.555s0.617-0.195,0.99-0.195c0.253,0,0.477,0.03,0.67,0.09
			s0.36,0.127,0.5,0.2V0.2L13.51,0V7.6z M10.04,5.13c0,0.533,0.126,0.952,0.38,1.255s0.603,0.455,1.05,0.455
			c0.193,0,0.358-0.008,0.495-0.025S12.213,6.78,12.3,6.76v-3c-0.107-0.073-0.249-0.142-0.425-0.205
			C11.698,3.492,11.51,3.46,11.31,3.46c-0.44,0-0.762,0.15-0.965,0.45C10.142,4.21,10.04,4.617,10.04,5.13z"/>
		<path d="M14.359,5.17c0-0.46,0.068-0.863,0.205-1.21s0.318-0.635,0.545-0.865s0.487-0.403,0.78-0.52S16.483,2.4,16.79,2.4
			c0.72,0,1.281,0.223,1.685,0.67s0.605,1.113,0.605,2c0,0.067-0.002,0.142-0.006,0.225c-0.003,0.083-0.008,0.158-0.015,0.225h-3.45
			c0.033,0.42,0.182,0.745,0.445,0.975s0.645,0.345,1.145,0.345c0.294,0,0.562-0.027,0.806-0.08c0.243-0.053,0.435-0.11,0.575-0.17
			l0.159,0.99c-0.066,0.034-0.158,0.069-0.274,0.105c-0.117,0.037-0.25,0.07-0.4,0.1c-0.149,0.03-0.312,0.055-0.484,0.075
			c-0.174,0.02-0.351,0.03-0.53,0.03c-0.46,0-0.86-0.068-1.2-0.205c-0.34-0.136-0.62-0.326-0.84-0.57
			c-0.22-0.243-0.384-0.53-0.49-0.86S14.359,5.563,14.359,5.17z M17.87,4.63c0-0.167-0.023-0.325-0.07-0.475s-0.115-0.28-0.205-0.39
			c-0.09-0.11-0.2-0.196-0.33-0.26S16.979,3.41,16.8,3.41c-0.187,0-0.351,0.035-0.49,0.105c-0.14,0.07-0.259,0.162-0.354,0.275
			c-0.097,0.114-0.172,0.244-0.226,0.39c-0.054,0.147-0.09,0.297-0.109,0.45H17.87z"/>
	</g>
</g>
</svg>
