<?xml version="1.0" encoding="utf-8"?>
<!-- Generator: Adobe Illustrator 17.0.2, SVG Export Plug-In . SVG Version: 6.00 Build 0)  -->
<!DOCTYPE svg PUBLIC "-//W3C//DTD SVG 1.1//EN" "http://www.w3.org/Graphics/SVG/1.1/DTD/svg11.dtd">
<svg version="1.1" id="Layer_1" xmlns="http://www.w3.org/2000/svg" xmlns:xlink="http://www.w3.org/1999/xlink" x="0px" y="0px"
	 width="16.643px" height="10.859px" viewBox="131.687 49.167 16.643 10.859" enable-background="new 131.687 49.167 16.643 10.859"
	 xml:space="preserve">
<g>
	<path fill="none" stroke="#000000" stroke-miterlimit="10" d="M147.458,58.393l-0.753,0.752c-0.241,0.241-0.572,0.382-0.914,0.382
		s-0.673-0.141-0.903-0.382l-4.88-4.869l-4.88,4.869c-0.23,0.241-0.562,0.382-0.903,0.382s-0.673-0.141-0.903-0.382l-0.753-0.752
		c-0.241-0.231-0.382-0.562-0.382-0.904s0.141-0.673,0.382-0.914l6.536-6.535c0.23-0.231,0.562-0.372,0.903-0.372
		s0.673,0.141,0.914,0.372l6.525,6.535c0.241,0.241,0.382,0.572,0.382,0.914S147.688,58.161,147.458,58.393z"/>
</g>
</svg>
