<?xml version="1.0" encoding="utf-8"?>
<!-- Generator: Adobe Illustrator 17.0.2, SVG Export Plug-In . SVG Version: 6.00 Build 0)  -->
<!DOCTYPE svg PUBLIC "-//W3C//DTD SVG 1.1//EN" "http://www.w3.org/Graphics/SVG/1.1/DTD/svg11.dtd">
<svg version="1.1" id="Layer_1" xmlns="http://www.w3.org/2000/svg" xmlns:xlink="http://www.w3.org/1999/xlink" x="0px" y="0px"
	 width="17.993px" height="15.422px" viewBox="0 0 17.993 15.422" enable-background="new 0 0 17.993 15.422" xml:space="preserve">
<g>
	<path d="M2.57,15.101c0,0.181-0.141,0.321-0.321,0.321H0.321C0.141,15.422,0,15.281,0,15.101v-1.928
		c0-0.181,0.141-0.321,0.321-0.321h1.928c0.181,0,0.321,0.141,0.321,0.321V15.101z M6.426,15.101c0,0.181-0.141,0.321-0.321,0.321
		H4.177c-0.181,0-0.321-0.141-0.321-0.321v-3.213c0-0.181,0.141-0.321,0.321-0.321h1.928c0.181,0,0.321,0.141,0.321,0.321V15.101z
		 M10.281,15.101c0,0.181-0.141,0.321-0.321,0.321H8.032c-0.181,0-0.321-0.141-0.321-0.321V9.317c0-0.181,0.141-0.321,0.321-0.321
		H9.96c0.181,0,0.321,0.141,0.321,0.321V15.101z M14.137,15.101c0,0.181-0.141,0.321-0.321,0.321h-1.928
		c-0.181,0-0.321-0.141-0.321-0.321V5.462c0-0.181,0.141-0.321,0.321-0.321h1.928c0.181,0,0.321,0.141,0.321,0.321V15.101z
		 M17.993,15.101c0,0.181-0.141,0.321-0.321,0.321h-1.928c-0.181,0-0.321-0.141-0.321-0.321V0.321C15.422,0.141,15.563,0,15.744,0
		h1.928c0.181,0,0.321,0.141,0.321,0.321V15.101z"/>
</g>
</svg>
