<?xml version="1.0" encoding="utf-8"?>
<!-- Generator: Adobe Illustrator 17.0.2, SVG Export Plug-In . SVG Version: 6.00 Build 0)  -->
<!DOCTYPE svg PUBLIC "-//W3C//DTD SVG 1.1//EN" "http://www.w3.org/Graphics/SVG/1.1/DTD/svg11.dtd">
<svg version="1.1" id="Layer_1" xmlns="http://www.w3.org/2000/svg" xmlns:xlink="http://www.w3.org/1999/xlink" x="0px" y="0px"
	 width="17.992px" height="15.422px" viewBox="0 0 17.992 15.422" enable-background="new 0 0 17.992 15.422" xml:space="preserve">
<g>
	<path d="M17.992,14.458c0,0.532-0.432,0.964-0.964,0.964h-3.213c-0.532,0-0.964-0.432-0.964-0.964v-3.213
		c0-0.532,0.432-0.964,0.964-0.964h0.964V8.354H9.639v1.928h0.964c0.532,0,0.964,0.432,0.964,0.964v3.213
		c0,0.532-0.432,0.964-0.964,0.964H7.39c-0.532,0-0.964-0.432-0.964-0.964v-3.213c0-0.532,0.432-0.964,0.964-0.964h0.964V8.354
		H3.213v1.928h0.964c0.532,0,0.964,0.432,0.964,0.964v3.213c0,0.532-0.432,0.964-0.964,0.964H0.964C0.432,15.422,0,14.99,0,14.458
		v-3.213c0-0.532,0.432-0.964,0.964-0.964h0.964V8.354c0-0.703,0.582-1.285,1.285-1.285h5.141V5.141H7.39
		c-0.532,0-0.964-0.432-0.964-0.964V0.964C6.426,0.432,6.857,0,7.39,0h3.213c0.532,0,0.964,0.432,0.964,0.964v3.213
		c0,0.532-0.432,0.964-0.964,0.964H9.639v1.928h5.141c0.703,0,1.285,0.583,1.285,1.285v1.928h0.964c0.532,0,0.964,0.432,0.964,0.964
		V14.458z"/>
</g>
</svg>
