<?xml version="1.0" encoding="utf-8"?>
<!-- Generator: Adobe Illustrator 17.0.2, SVG Export Plug-In . SVG Version: 6.00 Build 0)  -->
<!DOCTYPE svg PUBLIC "-//W3C//DTD SVG 1.1//EN" "http://www.w3.org/Graphics/SVG/1.1/DTD/svg11.dtd">
<svg version="1.1" id="Layer_1" xmlns="http://www.w3.org/2000/svg" xmlns:xlink="http://www.w3.org/1999/xlink" x="0px" y="0px"
	 width="17.992px" height="14.137px" viewBox="-1.996 -0.432 17.992 14.137" enable-background="new -1.996 -0.432 17.992 14.137"
	 xml:space="preserve">
<g>
	<path d="M14.581,13.414c-0.121,0.181-0.321,0.291-0.542,0.291H-0.038c-0.221,0-0.422-0.11-0.542-0.291
		c-0.923-1.446-1.416-3.123-1.416-4.85c0-4.96,4.036-8.996,8.996-8.996s8.996,4.036,8.996,8.996
		C15.996,10.291,15.504,11.958,14.581,13.414z M0.574,7.279c-0.713,0-1.285,0.572-1.285,1.285s0.572,1.285,1.285,1.285
		s1.285-0.572,1.285-1.285S1.287,7.279,0.574,7.279z M2.502,2.781c-0.713,0-1.285,0.572-1.285,1.285s0.572,1.285,1.285,1.285
		s1.285-0.572,1.285-1.285S3.215,2.781,2.502,2.781z M9.099,5.06c0.08-0.341-0.121-0.693-0.462-0.783S7.944,4.398,7.854,4.739
		L6.839,8.574C6.046,8.634,5.354,9.187,5.132,10c-0.271,1.034,0.352,2.088,1.375,2.36c1.034,0.271,2.088-0.352,2.36-1.375
		c0.21-0.813-0.131-1.637-0.783-2.088L9.099,5.06z M7,0.853c-0.713,0-1.285,0.572-1.285,1.285S6.287,3.423,7,3.423
		s1.285-0.572,1.285-1.285S7.713,0.853,7,0.853z M11.498,2.781c-0.713,0-1.285,0.572-1.285,1.285s0.572,1.285,1.285,1.285
		s1.285-0.572,1.285-1.285S12.211,2.781,11.498,2.781z M13.426,7.279c-0.713,0-1.285,0.572-1.285,1.285s0.572,1.285,1.285,1.285
		s1.285-0.572,1.285-1.285S14.139,7.279,13.426,7.279z"/>
</g>
</svg>
